<?xml version="1.0" encoding="UTF-8"?>
<svg width="440px" height="440px" viewBox="0 0 440 440" version="1.1" xmlns="http://www.w3.org/2000/svg" xmlns:xlink="http://www.w3.org/1999/xlink">
    <title>icon_templ copy 3</title>
    <defs>
        <filter x="-2.8%" y="-2.8%" width="105.7%" height="105.7%" filterUnits="objectBoundingBox" id="filter-1">
            <feOffset dx="0" dy="2" in="SourceAlpha" result="shadowOffsetOuter1"></feOffset>
            <feGaussianBlur stdDeviation="2" in="shadowOffsetOuter1" result="shadowBlurOuter1"></feGaussianBlur>
            <feColorMatrix values="0 0 0 0 0   0 0 0 0 0   0 0 0 0 0  0 0 0 0.5 0" type="matrix" in="shadowBlurOuter1" result="shadowMatrixOuter1"></feColorMatrix>
            <feMerge>
                <feMergeNode in="shadowMatrixOuter1"></feMergeNode>
                <feMergeNode in="SourceGraphic"></feMergeNode>
            </feMerge>
        </filter>
        <rect id="path-2" x="8.2421875" y="117.039062" width="405.515625" height="296.71875"></rect>
        <filter x="-1.7%" y="-1.7%" width="103.5%" height="104.7%" filterUnits="objectBoundingBox" id="filter-3">
            <feOffset dx="0" dy="2" in="SourceAlpha" result="shadowOffsetOuter1"></feOffset>
            <feGaussianBlur stdDeviation="2" in="shadowOffsetOuter1" result="shadowBlurOuter1"></feGaussianBlur>
            <feColorMatrix values="0 0 0 0 0   0 0 0 0 0   0 0 0 0 0  0 0 0 0.5 0" type="matrix" in="shadowBlurOuter1"></feColorMatrix>
        </filter>
    </defs>
    <g id="Welcome" stroke="none" stroke-width="1" fill="none" fill-rule="evenodd">
        <g id="Artboard" transform="translate(-2554.000000, 9.000000)" fill-rule="nonzero">
            <g id="icon_templ-copy-3" filter="url(#filter-1)" transform="translate(2563.000000, 0.000000)">
                <g id="Box">
                    <circle id="Oval" fill="#878791" cx="211" cy="31.3203125" r="23.078125"></circle>
                    <g id="Rectangle">
                        <use fill="black" fill-opacity="1" filter="url(#filter-3)" xlink:href="#path-2"></use>
                        <use fill="#F0F0FA" xlink:href="#path-2"></use>
                    </g>
                    <path d="M282.904844,422 C280.736324,422 278.610664,421.118086 277.069375,419.585039 C275.536328,418.051992 274.662656,415.925508 274.662656,413.757812 C274.662656,411.590117 275.536328,409.463633 277.069375,407.930586 C278.610664,406.397539 280.728082,405.515625 282.904844,405.515625 C285.072539,405.515625 287.199023,406.397539 288.731246,407.930586 C290.264293,409.463633 291.147031,411.590117 291.147031,413.757812 C291.147031,415.925508 290.265117,418.051992 288.731246,419.585039 C287.190781,421.118086 285.072539,422 282.904844,422 Z" id="Path" fill="#000000"></path>
                    <path d="M413.757812,108.796875 L314.85898,108.796875 L239.346531,44.6240273 C241.250477,40.583707 242.320312,36.0752305 242.320312,31.3203125 C242.320312,14.050457 228.269855,0 211,0 C193.730145,0 179.679688,14.050457 179.679688,31.3203125 C179.679688,36.0752305 180.749523,40.583707 182.654293,44.6248516 L107.141844,108.796875 L8.2421875,108.796875 C3.69085156,108.796875 0,112.486902 0,117.039062 L0,413.757812 C0,418.309973 3.69085156,422 8.2421875,422 L240.671875,422 C245.223211,422 248.914062,418.309973 248.914062,413.757812 C248.914062,409.205652 245.223211,405.515625 240.671875,405.515625 L16.484375,405.515625 L16.484375,125.28125 L405.515625,125.28125 L405.515625,405.515625 L324.742188,405.515625 C320.190852,405.515625 316.5,409.205652 316.5,413.757812 C316.5,418.309973 320.190852,422 324.742188,422 L413.757812,422 C418.309148,422 422,418.309973 422,413.757812 L422,117.039062 C422,112.487727 418.309973,108.796875 413.757812,108.796875 Z M211,16.484375 C219.180371,16.484375 225.835938,23.1399414 225.835938,31.3203125 C225.835938,39.5006836 219.180371,46.15625 211,46.15625 C202.819629,46.15625 196.164062,39.5006836 196.164062,31.3203125 C196.164062,23.1399414 202.819629,16.484375 211,16.484375 Z M193.34441,57.1727578 C198.374617,60.6196406 204.454879,62.640625 211,62.640625 C217.545121,62.640625 223.625383,60.6196406 228.656414,57.1727578 L289.402984,108.796875 L132.597016,108.796875 L193.34441,57.1727578 Z" id="Shape" fill="#000000"></path>
                </g>
                <g id="freedom" transform="translate(113.000000, 133.000000)" fill="#000000">
                    <path d="M159.046423,115.290913 C156.718731,116.669949 155.943648,119.686897 157.313857,122.028599 C164.449016,134.221401 168.220269,148.190903 168.220269,162.426173 C168.220269,206.389455 132.682374,242.156284 89.000489,242.156284 C45.3186044,242.156284 9.78070879,206.389455 9.78070879,162.426173 C9.78070879,118.462892 45.3186044,82.6960624 89.000489,82.6960624 C102.683016,82.6960624 116.167984,86.2617702 127.99667,93.0073313 C130.34539,94.3479783 133.330313,93.5172103 134.66189,91.1513915 C135.993467,88.786557 135.168016,85.7833895 132.81783,84.4432346 C119.521621,76.8605073 104.369615,72.8523467 89,72.8523467 C71.9946429,72.8523467 56.0900495,77.6804478 42.5625385,86.0412819 L37.2127582,65.9453567 C33.6219505,52.4571874 41.6035879,38.5432988 55.0049341,34.9288671 C68.4048132,31.3173883 82.2320879,39.3479823 85.8228956,52.8356594 C86.5221813,55.4608471 89.2034286,57.0200137 91.8118132,56.3157311 L115.034456,50.0529801 C116.287791,49.7148654 117.355302,48.8904954 118.003731,47.7600012 C118.652159,46.6295069 118.828203,45.2863991 118.492253,44.0254821 C114.41439,28.7089341 104.65422,15.9073297 91.0098352,7.97910526 C77.3654505,0.0508808316 61.4701484,-2.05606117 46.2516374,2.04856306 C14.8351264,10.5221021 -3.87443407,43.1381155 4.54291209,74.7560261 L14.7642198,113.077172 C5.44024725,127.237633 0,144.203414 0,162.426666 C0,211.817501 39.9253022,252 89,252 C138.074698,252 178,211.817501 178,162.426666 C178,146.435857 173.760764,130.73936 165.740984,117.03464 C164.371264,114.691953 161.372159,113.911877 159.046423,115.290913 Z M13.9901154,72.2085999 C6.96791758,45.832698 22.5756813,18.6250437 48.7822692,11.5576092 C61.4789505,8.13413603 74.7375055,9.89065927 86.1197253,16.5048134 C96.0784341,22.2916445 103.55639,31.1894264 107.549165,41.8821202 L93.674456,45.6240216 C86.9803846,29.7577296 69.4791703,20.8353396 52.4738132,25.4222817 C33.863033,30.4408493 22.7791099,49.7630972 27.766044,68.4937673 L34.0312527,92.0269462 C29.7744121,95.4007111 25.8339615,99.1598382 22.2534231,103.24576 L13.9901154,72.2085999 Z" id="XMLID_1143_"></path>
                    <path d="M159.069597,42.1673307 C160.367317,42.1673307 161.664023,41.6700913 162.654041,40.6766304 L186.515353,16.7200747 C188.494882,14.732644 188.494882,11.5100035 186.515353,9.52206382 C184.535317,7.53514207 181.326502,7.53514207 179.345959,9.52206382 L155.484647,33.4786196 C153.505118,35.4660503 153.505118,38.6886908 155.484647,40.6766304 C156.475172,41.6700913 157.772385,42.1673307 159.069597,42.1673307 L159.069597,42.1673307 Z" id="XMLID_1147_"></path>
                    <path d="M136.5,27.1075697 C138.9849,27.1075697 141,24.8808854 141,22.1350723 L141,4.97249743 C141,2.22668435 138.9849,0 136.5,0 C134.0151,0 132,2.22668435 132,4.97249743 L132,22.1350723 C132,24.8813826 134.0151,27.1075697 136.5,27.1075697 Z" id="XMLID_1152_"></path>
                    <path d="M191.047326,56.2231076 L173.952674,56.2231076 C171.217808,56.2231076 169,58.2462359 169,60.7410359 C169,63.2358359 171.217808,65.2589641 173.952674,65.2589641 L191.047326,65.2589641 C193.782192,65.2589641 196,63.2358359 196,60.7410359 C196,58.2462359 193.782688,56.2231076 191.047326,56.2231076 Z" id="XMLID_1153_"></path>
                    <path d="M148.5,106.422311 C149.6835,106.422311 150.8445,105.938892 151.68105,105.098558 C152.51805,104.258223 153,103.092598 153,101.904382 C153,100.711649 152.5185,99.5505418 151.68105,98.7102072 C150.8445,97.8658064 149.6835,97.3864542 148.5,97.3864542 C147.31605,97.3864542 146.1555,97.8658064 145.3185,98.7102072 C144.4815,99.5505418 144,100.712101 144,101.904382 C144,103.092598 144.48105,104.258223 145.3185,105.098558 C146.1555,105.938892 147.31605,106.422311 148.5,106.422311 Z" id="XMLID_1184_"></path>
                    <g id="light_bulb" transform="translate(18.000000, 97.000000)">
                        <path d="M105.181727,75.9326377 C110.950767,69.9421764 114,62.7919783 114,55.2547131 C114,46.0134165 109.397335,37.350378 101.039737,30.8612972 C92.6836269,24.3736803 81.6084528,20.8701681 69.8714528,21.0036799 C58.4973415,21.1304575 47.7813382,24.7244414 39.6973943,31.123636 C31.6138223,37.5225379 27.1052259,45.9800386 27.0018621,54.9376227 C26.9133707,62.6168905 29.9804507,69.895623 35.8714454,75.9873893 C45.4348305,85.8766278 50.7019241,97.9901837 50.7019241,110.096713 L50.7019241,123.343655 C50.7019241,129.219635 56.7725041,134 64.2344059,134 L76.8217408,134 C84.2836426,134 90.3542226,129.219343 90.3542226,123.343655 L90.3542226,110.097591 C90.3545944,97.8572575 95.4447053,86.0429319 105.181727,75.9326377 L105.181727,75.9326377 Z M40.3086538,73.3268163 C35.1746691,68.0179677 32.5017102,61.672939 32.5786753,54.9777348 C32.7642097,38.8933756 49.5288562,25.6227178 69.950277,25.3952209 C80.1948223,25.286889 89.8396343,28.3333577 97.1238098,33.9891612 C104.410216,39.6461359 108.422815,47.198626 108.422815,55.2550059 C108.422815,61.8257748 105.765472,68.0583725 100.737826,73.2790918 C90.4784079,83.9322166 84.954392,96.3605206 84.7283301,109.271634 L56.2713011,109.271634 C56.0381747,96.4858342 50.3903453,83.7518586 40.3086538,73.3268163 L40.3086538,73.3268163 Z M56.2791091,121.855408 L56.2791091,120.077594 L84.7774094,122.648574 L84.7774094,123.343655 C84.7774094,123.709641 84.7290737,124.066258 84.6524804,124.414969 L56.2791091,121.855408 Z M56.2791091,115.657067 L56.2791091,113.663467 L84.7774094,113.663467 L84.7774094,118.228047 L56.2791091,115.657067 L56.2791091,115.657067 Z M64.2344059,129.608459 C61.2387139,129.608459 58.6267322,128.296765 57.269989,126.365236 L81.2767962,128.530996 C80.0048262,129.210559 78.4714721,129.608166 76.8221126,129.608166 L64.2344059,129.608166 L64.2344059,129.608459 Z" id="Shape"></path>
                        <path d="M42.9686846,58.2487942 C42.7481089,56.9943237 42.6429113,55.7056548 42.6568622,54.4189036 C42.6711902,53.0950776 41.4167368,52.0122377 39.8549856,52.0000926 C38.303792,51.9885866 37.0157809,53.051291 37.0014529,54.375117 C36.9848626,55.9124427 37.110421,57.4536037 37.3747348,58.9560919 C37.5839989,60.1456816 38.7905666,61 40.1683162,61 C40.3070715,61 40.447712,60.9913705 40.5891067,60.9734723 C42.1335134,60.7778708 43.1990636,59.5582378 42.9686846,58.2487942 Z" id="Path"></path>
                        <path d="M59.1722912,91 C59.4647331,91 59.762451,90.9640323 60.0556466,90.888854 C61.5385833,90.507361 62.3454365,89.2576324 61.8577821,88.0978229 C58.7253374,80.6457373 54.0568191,73.7028005 47.9818662,67.4624122 C46.9779161,66.430848 46.0881541,65.3320656 45.3378296,64.1961362 C44.6210455,63.1112102 42.9157625,62.686674 41.5289246,63.2474156 C40.1424636,63.8081573 39.599411,65.1422035 40.3161952,66.2271295 C41.2168861,67.589773 42.2826408,68.9067199 43.4848182,70.1417077 C49.177637,75.9896948 53.5525829,82.4957131 56.4879308,89.4790399 C56.8791095,90.4097767 57.9844344,91 59.1722912,91 Z" id="Path"></path>
                        <path d="M99.1898532,62.1905924 C97.671499,61.6817426 95.9100645,62.2269167 95.2562621,63.4079202 C94.3078895,65.1210583 93.0805132,66.7550281 91.6084601,68.2645021 C90.6093958,69.2890319 90.8676437,70.7497631 92.184828,71.5268535 C92.7256718,71.8460101 93.3611134,72 93.9913661,72 C94.8962317,72 95.7903204,71.6823957 96.3790619,71.0782336 C98.1428913,69.2691623 99.6149445,67.3082742 100.754908,65.2502111 C101.409109,64.0692076 100.708607,62.6991318 99.1898532,62.1905924 L99.1898532,62.1905924 Z" id="Path"></path>
                        <path d="M69.7694012,33.2766722 C85.0387716,33.2766722 97.4611976,42.8686777 97.4611976,54.6586075 C97.4611976,55.3289046 97.4213182,56.0043337 97.3426672,56.6660774 C97.2030894,57.8421623 98.324143,58.8828192 99.8473137,58.9908764 C99.9333497,58.9968638 100.018647,59 100.103576,59 C101.518924,59 102.726383,58.1666191 102.858207,57.0569653 C102.951997,56.2657809 103,55.4589154 103,54.6586075 C103,40.5105206 88.0928673,29 69.7694012,29 C68.2399532,29 67,29.9574043 67,31.1383361 C67,32.3192678 68.2399532,33.2766722 69.7694012,33.2766722 Z" id="Path"></path>
                        <path d="M70,17 C71.6568,17 73,15.9984912 73,14.7631579 L73,2.23684211 C73,1.00150877 71.6568,0 70,0 C68.3432,0 67,1.00150877 67,2.23684211 L67,14.7631579 C67,15.9984912 68.3432,17 70,17 Z" id="Path"></path>
                        <path d="M41.9445621,21.9042696 C42.4466102,22.6072075 43.3567981,23 44.2929914,23 C44.7524196,23 45.2183491,22.9053794 45.6449094,22.7062088 C46.9404825,22.101396 47.3847409,20.7618131 46.6367253,19.7142691 L39.0554379,9.09573089 C38.3070611,8.04789494 36.6506636,7.688979 35.3550906,8.29379178 C34.0595175,8.89860456 33.6152591,10.2381875 34.3632747,11.2857314 L41.9445621,21.9042696 Z" id="Path"></path>
                        <path d="M128.612149,80.1112365 L115.161944,74.2796193 C113.834679,73.703959 112.137867,74.0456878 111.372138,75.042536 C110.606038,76.0391063 111.060667,77.313505 112.387932,77.8888875 L125.838137,83.7205047 C126.275009,83.9099836 126.751833,84 127.222738,84 C128.181565,84 129.114127,83.626043 129.627943,82.957588 C130.394042,81.9610177 129.939044,80.686619 128.612149,80.1112365 L128.612149,80.1112365 Z" id="Path"></path>
                        <path d="M11.3879257,30.8888875 L24.8380737,36.7205047 C25.2749446,36.9099836 25.7517664,37 26.2226695,37 C27.181492,37 28.1140503,36.626043 28.6278638,35.957588 C29.3939599,34.9610177 28.9393331,33.686619 27.6120743,33.1112365 L14.1619263,27.2796193 C12.8350374,26.703959 11.1382324,27.0456878 10.3721362,28.042536 C9.60604008,29.0391063 10.0606669,30.3132271 11.3879257,30.8888875 L11.3879257,30.8888875 Z" id="Path"></path>
                        <path d="M137.236842,53 L121.763158,53 C120.237158,53 119,53.8954667 119,55 C119,56.1045333 120.237158,57 121.763158,57 L137.236842,57 C138.762842,57 140,56.1045333 140,55 C140,53.8954667 138.763211,53 137.236842,53 Z" id="Path"></path>
                        <path d="M21,55 C21,53.8954667 19.7628421,53 18.2368421,53 L2.76315789,53 C1.23715789,53 0,53.8954667 0,55 C0,56.1045333 1.23715789,57 2.76315789,57 L18.2368421,57 C19.7632105,57 21,56.1045333 21,55 Z" id="Path"></path>
                        <path d="M113.777273,37 C114.247811,37 114.725006,36.909982 115.161881,36.7204995 L128.612143,30.888775 C129.939043,30.3133819 130.394044,29.0389598 129.627941,28.0423711 C128.861839,27.0457824 127.164649,26.7040473 125.838119,27.2794404 L112.387857,33.1111649 C111.060957,33.686558 110.605956,34.9609802 111.372059,35.9575688 C111.885876,36.6260361 112.818813,37 113.777273,37 Z" id="Path"></path>
                        <path d="M24.838119,74.2794993 L11.3878569,80.1111885 C10.0609567,80.6865781 9.60595605,81.9609925 10.3720587,82.9575751 C10.8858765,83.6260384 11.8184428,84 12.7772734,84 C13.2478106,84 13.7250064,83.9099825 14.161881,83.7205012 L27.6121431,77.888812 C28.9390433,77.3134224 29.3940439,76.039008 28.6279413,75.0424254 C27.8622085,74.0455649 26.1642794,73.7041097 24.838119,74.2794993 L24.838119,74.2794993 Z" id="Path"></path>
                        <path d="M95.3550906,22.7062088 C95.7816509,22.9053794 96.2472192,23 96.7070086,23 C97.6432019,23 98.553751,22.6069155 99.0554379,21.9042696 L106.636725,11.2857314 C107.384741,10.2381875 106.940482,8.89860456 105.644909,8.29379178 C104.349698,7.688979 102.692578,8.04789494 101.944562,9.09573089 L94.3632747,19.7142691 C93.6152591,20.7618131 94.0595175,22.101396 95.3550906,22.7062088 L95.3550906,22.7062088 Z" id="Path"></path>
                    </g>
                </g>
            </g>
        </g>
    </g>
</svg>
