<?xml version="1.0" encoding="UTF-8"?>
<svg width="440px" height="440px" viewBox="0 0 440 440" version="1.1" xmlns="http://www.w3.org/2000/svg" xmlns:xlink="http://www.w3.org/1999/xlink">
    <title>icon_templ copy 2</title>
    <defs>
        <filter x="-2.8%" y="-2.8%" width="105.7%" height="105.7%" filterUnits="objectBoundingBox" id="filter-1">
            <feOffset dx="0" dy="2" in="SourceAlpha" result="shadowOffsetOuter1"></feOffset>
            <feGaussianBlur stdDeviation="2" in="shadowOffsetOuter1" result="shadowBlurOuter1"></feGaussianBlur>
            <feColorMatrix values="0 0 0 0 0   0 0 0 0 0   0 0 0 0 0  0 0 0 0.5 0" type="matrix" in="shadowBlurOuter1" result="shadowMatrixOuter1"></feColorMatrix>
            <feMerge>
                <feMergeNode in="shadowMatrixOuter1"></feMergeNode>
                <feMergeNode in="SourceGraphic"></feMergeNode>
            </feMerge>
        </filter>
        <rect id="path-2" x="8.2421875" y="117.039062" width="405.515625" height="296.71875"></rect>
        <filter x="-1.7%" y="-1.7%" width="103.5%" height="104.7%" filterUnits="objectBoundingBox" id="filter-3">
            <feOffset dx="0" dy="2" in="SourceAlpha" result="shadowOffsetOuter1"></feOffset>
            <feGaussianBlur stdDeviation="2" in="shadowOffsetOuter1" result="shadowBlurOuter1"></feGaussianBlur>
            <feColorMatrix values="0 0 0 0 0   0 0 0 0 0   0 0 0 0 0  0 0 0 0.5 0" type="matrix" in="shadowBlurOuter1"></feColorMatrix>
        </filter>
    </defs>
    <g id="Welcome" stroke="none" stroke-width="1" fill="none" fill-rule="evenodd">
        <g id="Artboard" transform="translate(-2049.000000, 9.000000)" fill-rule="nonzero">
            <g id="icon_templ-copy-2" filter="url(#filter-1)" transform="translate(2058.000000, 0.000000)">
                <g id="Box">
                    <circle id="Oval" fill="#878791" cx="211" cy="31.3203125" r="23.078125"></circle>
                    <g id="Rectangle">
                        <use fill="black" fill-opacity="1" filter="url(#filter-3)" xlink:href="#path-2"></use>
                        <use fill="#F0F0FA" xlink:href="#path-2"></use>
                    </g>
                    <path d="M282.904844,422 C280.736324,422 278.610664,421.118086 277.069375,419.585039 C275.536328,418.051992 274.662656,415.925508 274.662656,413.757812 C274.662656,411.590117 275.536328,409.463633 277.069375,407.930586 C278.610664,406.397539 280.728082,405.515625 282.904844,405.515625 C285.072539,405.515625 287.199023,406.397539 288.731246,407.930586 C290.264293,409.463633 291.147031,411.590117 291.147031,413.757812 C291.147031,415.925508 290.265117,418.051992 288.731246,419.585039 C287.190781,421.118086 285.072539,422 282.904844,422 Z" id="Path" fill="#000000"></path>
                    <path d="M413.757812,108.796875 L314.85898,108.796875 L239.346531,44.6240273 C241.250477,40.583707 242.320312,36.0752305 242.320312,31.3203125 C242.320312,14.050457 228.269855,0 211,0 C193.730145,0 179.679688,14.050457 179.679688,31.3203125 C179.679688,36.0752305 180.749523,40.583707 182.654293,44.6248516 L107.141844,108.796875 L8.2421875,108.796875 C3.69085156,108.796875 0,112.486902 0,117.039062 L0,413.757812 C0,418.309973 3.69085156,422 8.2421875,422 L240.671875,422 C245.223211,422 248.914062,418.309973 248.914062,413.757812 C248.914062,409.205652 245.223211,405.515625 240.671875,405.515625 L16.484375,405.515625 L16.484375,125.28125 L405.515625,125.28125 L405.515625,405.515625 L324.742188,405.515625 C320.190852,405.515625 316.5,409.205652 316.5,413.757812 C316.5,418.309973 320.190852,422 324.742188,422 L413.757812,422 C418.309148,422 422,418.309973 422,413.757812 L422,117.039062 C422,112.487727 418.309973,108.796875 413.757812,108.796875 Z M211,16.484375 C219.180371,16.484375 225.835938,23.1399414 225.835938,31.3203125 C225.835938,39.5006836 219.180371,46.15625 211,46.15625 C202.819629,46.15625 196.164062,39.5006836 196.164062,31.3203125 C196.164062,23.1399414 202.819629,16.484375 211,16.484375 Z M193.34441,57.1727578 C198.374617,60.6196406 204.454879,62.640625 211,62.640625 C217.545121,62.640625 223.625383,60.6196406 228.656414,57.1727578 L289.402984,108.796875 L132.597016,108.796875 L193.34441,57.1727578 Z" id="Shape" fill="#000000"></path>
                </g>
                <g id="money-bag" transform="translate(87.000000, 133.000000)" fill="#000000">
                    <path d="M94,149.428571 C98.0436,149.428571 101.333333,152.728986 101.333333,156.785714 C101.333333,160.848819 104.616711,164.142857 108.666667,164.142857 C112.716622,164.142857 116,160.848819 116,156.785714 C116,147.194452 109.868844,139.016743 101.333333,135.979714 L101.333333,127.357143 C101.333333,123.294038 98.0499556,120 94,120 C89.9500444,120 86.6666667,123.294038 86.6666667,127.357143 L86.6666667,135.979714 C78.1311556,139.016743 72,147.194452 72,156.785714 C72,168.9559 81.8692,178.857143 94,178.857143 C98.0436,178.857143 101.333333,182.157557 101.333333,186.214286 C101.333333,190.271014 98.0436,193.571429 94,193.571429 C89.9564,193.571429 86.6666667,190.271014 86.6666667,186.214286 C86.6666667,182.151181 83.3832889,178.857143 79.3333333,178.857143 C75.2833778,178.857143 72,182.151181 72,186.214286 C72,195.805548 78.1311556,203.983257 86.6666667,207.020286 L86.6666667,215.642857 C86.6666667,219.705962 89.9500444,223 94,223 C98.0499556,223 101.333333,219.705962 101.333333,215.642857 L101.333333,207.020286 C109.868844,203.983257 116,195.805548 116,186.214286 C116,174.0441 106.1308,164.142857 94,164.142857 C89.9564,164.142857 86.6666667,160.842443 86.6666667,156.785714 C86.6666667,152.728986 89.9564,149.428571 94,149.428571 Z" id="Path"></path>
                    <path d="M240.734375,178.171875 L184.070734,178.171875 C176.092109,150.470578 159.634984,133.828242 145.007344,119.036531 C130.708109,104.576555 119.091344,92.8137656 116.706766,73.828125 L123.515625,73.828125 C127.528188,73.828125 130.78125,70.5225937 130.78125,66.4453125 C130.78125,62.3680313 127.528188,59.0625 123.515625,59.0625 L116.9165,59.0625 C121.030297,35.5019766 142.819906,12.9770156 143.184156,12.6034453 C143.184641,12.6034453 143.184641,12.6029531 143.185125,12.6024609 C143.185609,12.6019688 143.188516,12.5990156 143.189,12.5985234 C147.804125,7.87303125 144.4135,0 138.043484,0 C124.946953,0 117.890578,4.78110937 112.22,8.62263281 C107.153437,12.0546562 103.151531,14.765625 94.453125,14.765625 C85.7547187,14.765625 81.7528125,12.0546563 76.68625,8.62263281 C71.0151875,4.78110937 63.9578437,0 50.859375,0 C44.4588437,0 41.1229531,7.92963281 45.71725,12.5985234 C45.7177344,12.5990156 45.7206406,12.6019688 45.721125,12.6024609 C45.7216094,12.6029531 45.7220937,12.6034453 45.7220937,12.6034453 C46.0863437,12.9765234 67.8759531,35.5019766 71.98975,59.0625 L65.390625,59.0625 C61.3780625,59.0625 58.125,62.3680312 58.125,66.4453125 C58.125,70.5225937 61.3780625,73.828125 65.390625,73.828125 L72.199,73.828125 C69.8163594,92.7714375 58.2262344,104.482547 43.9599375,118.879031 C34.0946719,128.834508 22.912875,140.118891 14.4455156,155.132578 C4.72507812,172.368984 0,191.979703 0,215.085938 C0,215.572711 0.003875,216.058992 0.011140625,216.540352 C0.312421875,236.092992 16.6174531,252 36.3576719,252 L152.549062,252 C152.553906,252 152.55875,252 152.563594,252 C152.568437,252 152.573281,252 152.578125,252 L240.734375,252 C244.746937,252 248,248.694469 248,244.617188 L248,185.554688 C248,181.477406 244.746937,178.171875 240.734375,178.171875 Z M233.46875,207.703125 L159.84375,207.703125 L159.84375,192.9375 L178.433578,192.9375 C178.446656,192.9375 178.45925,192.938977 178.472328,192.938977 C178.482016,192.938977 178.491219,192.9375 178.500906,192.9375 L233.46875,192.9375 L233.46875,207.703125 Z M94.453125,29.53125 C104.706859,29.53125 111.258516,26.6012578 116.341062,23.4857109 C110.049031,33.4224844 103.974969,45.9353672 102.2225,59.0625 L86.6827812,59.0625 C84.9307969,45.9353672 78.85625,33.4224844 72.5642187,23.4857109 C77.6477344,26.6012578 84.1993906,29.53125 94.453125,29.53125 Z M14.5409375,216.305578 C14.5341563,215.899523 14.53125,215.492977 14.53125,215.085938 C14.53125,169.387313 34.6977188,149.036344 54.199625,129.355734 C69.0185938,114.401109 84.2904531,98.9749687 86.8159844,73.828125 L102.089781,73.828125 C104.616766,99.0089297 119.913328,114.492164 134.756516,129.502406 C147.922312,142.816078 161.479484,156.535312 168.817281,178.171875 L152.578125,178.171875 C148.565562,178.171875 145.3125,181.477406 145.3125,185.554688 L145.3125,237.234375 L36.3576719,237.234375 C24.5055,237.234375 14.7187031,227.847375 14.5409375,216.305578 Z M233.46875,237.234375 L159.84375,237.234375 L159.84375,222.46875 L233.46875,222.46875 L233.46875,237.234375 Z" id="Shape"></path>
                </g>
            </g>
        </g>
    </g>
</svg>
