<?xml version="1.0" encoding="UTF-8"?>
<svg width="440px" height="440px" viewBox="0 0 440 440" version="1.1" xmlns="http://www.w3.org/2000/svg" xmlns:xlink="http://www.w3.org/1999/xlink">
    <title>icon_templ copy</title>
    <defs>
        <filter x="-2.8%" y="-2.8%" width="105.7%" height="105.7%" filterUnits="objectBoundingBox" id="filter-1">
            <feOffset dx="0" dy="2" in="SourceAlpha" result="shadowOffsetOuter1"></feOffset>
            <feGaussianBlur stdDeviation="2" in="shadowOffsetOuter1" result="shadowBlurOuter1"></feGaussianBlur>
            <feColorMatrix values="0 0 0 0 0   0 0 0 0 0   0 0 0 0 0  0 0 0 0.5 0" type="matrix" in="shadowBlurOuter1" result="shadowMatrixOuter1"></feColorMatrix>
            <feMerge>
                <feMergeNode in="shadowMatrixOuter1"></feMergeNode>
                <feMergeNode in="SourceGraphic"></feMergeNode>
            </feMerge>
        </filter>
        <rect id="path-2" x="8.2421875" y="117.039062" width="405.515625" height="296.71875"></rect>
        <filter x="-1.7%" y="-1.7%" width="103.5%" height="104.7%" filterUnits="objectBoundingBox" id="filter-3">
            <feOffset dx="0" dy="2" in="SourceAlpha" result="shadowOffsetOuter1"></feOffset>
            <feGaussianBlur stdDeviation="2" in="shadowOffsetOuter1" result="shadowBlurOuter1"></feGaussianBlur>
            <feColorMatrix values="0 0 0 0 0   0 0 0 0 0   0 0 0 0 0  0 0 0 0.5 0" type="matrix" in="shadowBlurOuter1"></feColorMatrix>
        </filter>
    </defs>
    <g id="Welcome" stroke="none" stroke-width="1" fill="none" fill-rule="evenodd">
        <g id="Artboard" transform="translate(-1544.000000, 9.000000)" fill-rule="nonzero">
            <g id="icon_templ-copy" filter="url(#filter-1)" transform="translate(1553.000000, 0.000000)">
                <g id="Box">
                    <circle id="Oval" fill="#878791" cx="211" cy="31.3203125" r="23.078125"></circle>
                    <g id="Rectangle">
                        <use fill="black" fill-opacity="1" filter="url(#filter-3)" xlink:href="#path-2"></use>
                        <use fill="#F0F0FA" xlink:href="#path-2"></use>
                    </g>
                    <path d="M282.904844,422 C280.736324,422 278.610664,421.118086 277.069375,419.585039 C275.536328,418.051992 274.662656,415.925508 274.662656,413.757812 C274.662656,411.590117 275.536328,409.463633 277.069375,407.930586 C278.610664,406.397539 280.728082,405.515625 282.904844,405.515625 C285.072539,405.515625 287.199023,406.397539 288.731246,407.930586 C290.264293,409.463633 291.147031,411.590117 291.147031,413.757812 C291.147031,415.925508 290.265117,418.051992 288.731246,419.585039 C287.190781,421.118086 285.072539,422 282.904844,422 Z" id="Path" fill="#000000"></path>
                    <path d="M413.757812,108.796875 L314.85898,108.796875 L239.346531,44.6240273 C241.250477,40.583707 242.320312,36.0752305 242.320312,31.3203125 C242.320312,14.050457 228.269855,0 211,0 C193.730145,0 179.679688,14.050457 179.679688,31.3203125 C179.679688,36.0752305 180.749523,40.583707 182.654293,44.6248516 L107.141844,108.796875 L8.2421875,108.796875 C3.69085156,108.796875 0,112.486902 0,117.039062 L0,413.757812 C0,418.309973 3.69085156,422 8.2421875,422 L240.671875,422 C245.223211,422 248.914062,418.309973 248.914062,413.757812 C248.914062,409.205652 245.223211,405.515625 240.671875,405.515625 L16.484375,405.515625 L16.484375,125.28125 L405.515625,125.28125 L405.515625,405.515625 L324.742188,405.515625 C320.190852,405.515625 316.5,409.205652 316.5,413.757812 C316.5,418.309973 320.190852,422 324.742188,422 L413.757812,422 C418.309148,422 422,418.309973 422,413.757812 L422,117.039062 C422,112.487727 418.309973,108.796875 413.757812,108.796875 Z M211,16.484375 C219.180371,16.484375 225.835938,23.1399414 225.835938,31.3203125 C225.835938,39.5006836 219.180371,46.15625 211,46.15625 C202.819629,46.15625 196.164062,39.5006836 196.164062,31.3203125 C196.164062,23.1399414 202.819629,16.484375 211,16.484375 Z M193.34441,57.1727578 C198.374617,60.6196406 204.454879,62.640625 211,62.640625 C217.545121,62.640625 223.625383,60.6196406 228.656414,57.1727578 L289.402984,108.796875 L132.597016,108.796875 L193.34441,57.1727578 Z" id="Shape" fill="#000000"></path>
                </g>
                <g id="gift" transform="translate(75.000000, 133.000000)" fill="#000000">
                    <path d="M268.274402,85.2200941 C270.301153,82.7969546 269.526516,78.3124888 265.976455,77.454804 C246.389815,72.7310514 222.703512,74.9523827 202.616315,74.9884199 C195.035833,75.0013933 184.591933,74.316687 174.78563,75.2507705 C181.013022,72.2337384 186.93604,68.6112817 192.29503,64.3531293 C206.880427,52.7650159 213.806002,24.1745641 199.422559,9.520408 C177.690881,-12.6193898 147.808922,17.1804696 132.347911,44.3885354 C125.726709,18.6839404 107.175804,-8.34826398 82.221519,2.43405826 C64.7640499,9.97447639 63.1556316,35.3605027 69.5272761,50.000244 C74.7838466,62.0813459 87.8574743,71.2722666 101.671119,75.7019559 C69.9629194,72.2827489 38.0484387,71.7609307 6.16280854,70.2949385 C3.02819606,70.1507898 0.395583182,73.0236732 0.40279582,76.0507958 C0.437416482,91.2901956 -2.5716961,110.855498 7.34856623,123.765455 C7.6082212,124.101321 7.91403705,124.375204 8.24870346,124.587102 C7.32837084,124.941708 6.40371065,125.267484 5.48193551,125.652361 C2.44829996,126.922311 3.53452325,131.140102 6.84656662,130.59522 C25.1984028,127.575305 43.4752275,127.627198 61.7405121,128.77318 C62.0290176,128.842372 62.3002128,128.851021 62.5656378,128.823632 C82.4984843,130.109439 102.416905,132.669519 122.408895,133.991363 C124.799164,134.149926 127.662581,132.103015 128.070816,129.682758 C130.306734,116.435494 135.038225,97.8648175 131.046751,84.7890895 C130.934234,84.4186274 130.740935,84.1533938 130.577929,83.8477986 C131.1434,84.0467238 131.746377,84.1995214 132.428692,84.2370001 C138.045895,84.5454783 143.677522,84.2067288 149.237024,83.3476026 C148.406128,84.3782658 147.813249,85.4997426 147.325675,86.6615811 C146.641917,87.1372718 146.243779,87.9531534 146.602968,88.763269 C145.476354,92.9435811 145.734567,97.6226477 145.584544,102.023507 C145.283056,110.748828 145.459044,119.464058 146.571233,128.121628 C147.135261,132.51528 152.207188,133.04863 153.88052,129.736094 C171.724587,128.489207 189.427285,126.868976 207.337708,126.652753 C225.760228,126.430764 242.692617,130.961357 260.699689,132.719971 C262.361481,132.881418 263.495308,132.222658 264.207916,131.229474 C265.090743,130.848921 265.840858,130.165657 266.149559,129.071568 C268.45039,120.90122 270.490124,112.804388 271.462388,104.358716 C272.115853,98.6518694 273.049168,89.5286986 268.274402,85.2200941 Z M13.4576706,122.736233 C13.5182568,122.286489 13.5038315,121.800708 13.3264006,121.245735 C10.4413454,112.206171 10.5163568,102.232523 11.044322,92.407348 C13.1143491,96.7202769 15.7931228,100.726169 18.7459768,104.53746 C21.863279,108.557768 25.8230172,114.68697 30.2761,118.746197 C24.6473573,119.642802 19.0402525,120.919959 13.4576706,122.736233 Z M37.5421115,117.810672 C34.7306252,112.873579 28.4974634,108.593805 24.7541043,104.536019 C19.4585855,98.7945766 14.6477559,92.4707734 11.517471,85.2777536 C11.5059308,85.2489239 11.4828503,85.237392 11.4698676,85.2114452 C11.5347813,84.1663672 11.6025801,83.1212892 11.6602812,82.0891845 C12.1233326,82.1122483 12.586384,82.1309876 13.0494353,82.1554929 C18.8296434,90.6126967 26.0841147,98.0003173 33.4785112,105.047747 C37.5507667,108.926788 41.7946829,113.192148 46.2290127,117.22687 C43.3295322,117.347955 40.4300518,117.520933 37.5421115,117.810672 Z M57.0018089,117.121641 C51.3672961,112.354644 44.9711287,108.122438 39.5299145,103.573106 C31.7243977,97.0489359 24.504547,90.0433094 17.8963281,82.3904553 C23.2899388,82.6499229 28.6878771,82.8863268 34.0843728,83.1212892 C34.1839072,83.357693 34.2805566,83.5955384 34.4680852,83.8189688 C41.879792,92.6754645 50.0142052,100.770855 58.6578306,108.423709 C61.7534948,111.165417 65.3367334,114.60913 69.1637591,117.657875 C65.0943887,117.399848 61.0380011,117.192274 57.0018089,117.121641 Z M82.6009037,118.728899 C76.2004087,112.586724 67.3865651,107.981173 60.6268807,102.238289 C53.7315988,96.380086 47.2185867,90.0245701 41.0099479,83.4254429 C46.1063979,83.6503149 51.2014054,83.8982506 56.2949703,84.1548353 C56.3137232,84.7919725 56.561838,85.4348757 57.193665,85.9076834 C65.8877789,92.4246458 73.7149337,99.6479368 81.4338989,107.27052 C85.54366,111.326864 89.7947889,115.923766 94.4310726,119.87344 C90.4756619,119.481355 86.5245788,119.090713 82.6009037,118.728899 Z M107.522011,120.994917 C99.9977866,113.816312 90.9920868,107.880269 83.1461792,100.972663 C76.5552705,95.1721199 69.915316,89.4522998 62.6853676,84.4892603 C70.3971202,84.9144989 78.1002176,85.4449661 85.7946598,86.0806618 C89.2394158,93.0574586 94.3531761,99.1376504 99.7770799,104.670077 C104.188329,109.171841 109.881986,115.058874 115.946372,118.665474 C114.294678,120.565354 111.771697,121.140507 107.522011,120.994917 Z M119.281496,104.089158 C119.076657,106.666537 118.851622,108.759576 118.597738,110.645041 C114.405752,107.555934 109.860348,104.759449 105.995816,101.458444 C100.772424,96.9956009 95.8490772,92.1536463 91.8633735,86.5938312 C100.867631,87.4284521 109.853135,88.4634397 118.809789,89.8299693 C119.368047,89.9150171 119.893127,89.9121341 120.400897,89.867448 C119.565674,94.5306582 119.650783,99.4562191 119.281496,104.089158 Z M89.354818,55.0050866 C76.4398683,44.6552104 74.7636513,3.02939236 98.0633571,13.6171139 C115.314545,21.4559198 125.912795,51.0179337 122.541608,68.4238884 C122.558918,68.4253299 122.576229,68.4282129 122.593539,68.4310959 C122.528625,68.7914676 122.465154,69.1518393 122.416108,69.4992377 C109.932474,67.8472937 99.3039308,62.9808338 89.354818,55.0050866 Z M126.044065,81.4506058 C125.572359,80.050922 124.444302,78.9294452 122.592096,78.4609619 C123.197958,78.4133929 123.818245,78.393212 124.411124,78.3182547 C125.23625,78.2144677 125.896927,77.9247288 126.475381,77.5643571 C126.44653,78.9352111 126.82303,80.3248045 127.578914,81.489526 C127.076915,81.3958293 126.559047,81.3842974 126.044065,81.4506058 Z M260.207787,87.6547656 C259.262932,92.7835761 261.090614,99.0785495 260.861252,104.357275 C260.794896,105.902549 260.672281,107.449264 260.572747,108.99598 C257.536226,104.338535 252.181564,100.334085 248.363193,96.5285591 C245.560362,93.7349574 242.7056,90.9831589 239.751303,88.3481208 C246.717269,88.6061469 253.632747,88.5556949 260.207787,87.6547656 Z M134.220311,71.9065209 C134.240507,71.8214731 134.278013,71.7508403 134.295323,71.6614681 C134.451116,70.8513524 134.580943,70.0080826 134.684805,69.1345415 C137.740079,49.612484 163.574306,11.9334571 186.116685,14.9894094 C198.16756,16.6211726 194.324667,39.9790268 191.631468,45.917953 C188.035246,53.8533385 179.610885,58.931697 172.404017,62.9678604 C161.205675,69.242653 147.0891,72.2971638 134.220311,71.9065209 Z M155.014347,121.867016 C155.488938,116.222154 155.70099,110.564317 156.022674,104.893508 C156.129421,103.028224 156.387633,101.128344 156.651616,99.2198152 C159.256821,102.071076 161.812979,104.968465 164.348943,107.884593 C167.236883,111.205779 170.269076,115.312575 173.702292,118.754846 C167.427297,119.683164 161.17971,120.700853 155.014347,121.867016 Z M182.377653,117.552646 C178.327035,112.660239 172.476144,108.400645 168.22213,104.012759 C164.653316,100.331202 161.080175,96.6827982 157.348357,93.2016073 C157.498379,90.9918078 157.466644,88.8093966 157.016575,86.6976182 C159.014476,87.2006972 161.113354,87.555303 163.277145,87.8118876 C170.580662,94.4110148 177.512007,101.405109 184.730416,108.09505 C187.03269,110.227009 190.111043,113.65919 193.45338,116.395132 C189.759067,116.725232 186.064754,117.100019 182.377653,117.552646 Z M213.915634,115.370235 C210.602148,115.383208 207.274237,115.50141 203.944883,115.66574 C202.599005,113.762977 200.543403,112.57375 198.585893,111.188481 C194.669431,108.416502 190.992428,105.295683 187.313982,102.223874 C181.735728,97.5635467 176.180554,92.8715068 170.541714,88.2846954 C174.228815,88.3711846 178.029875,88.2457752 181.842475,88.0410841 C181.776119,88.7315563 181.978073,89.4277945 182.653176,89.9510542 C190.168745,95.7804274 197.434756,101.911071 204.803187,107.922072 C207.694012,110.280344 210.766596,112.931239 213.999301,115.370235 C213.973335,115.370235 213.944485,115.370235 213.915634,115.370235 Z M226.990704,115.436543 C221.119617,111.048657 214.378685,107.489626 208.535006,103.090208 C201.781092,98.0046417 195.330108,92.5500552 188.462234,87.6244943 C194.787718,87.1747504 200.944426,86.6932938 206.52268,86.6543736 C214.274823,93.1612456 221.425433,100.279308 228.695772,107.316647 C231.49716,110.028084 234.375003,113.105659 237.391328,116.060707 C233.923492,115.717633 230.425362,115.520149 226.990704,115.436543 Z M251.46607,118.744756 C245.2055,112.299868 237.081185,106.794829 230.523454,100.903472 C225.028867,95.9663792 219.307802,91.2916371 213.44537,86.7999638 C219.137584,87.0478996 225.05916,87.5207073 231.026896,87.9070258 C235.484307,92.1104017 239.733993,96.483873 243.823559,101.064918 C247.786182,105.503257 251.763231,112.041841 257.07029,114.878688 C258.178151,115.471139 259.297552,115.381767 260.177494,114.89022 C259.985638,117.303269 259.786569,119.714876 259.596156,122.127925 C257.05875,120.722476 254.323717,119.629829 251.46607,118.744756 Z" id="Shape"></path>
                    <path d="M124.819002,177.820133 C124.784484,168.857511 124.143035,159.916604 122.415723,151.065453 C121.920973,148.52766 119.263127,146.810705 116.831084,146.784646 C87.2510495,146.477737 54.7025127,140.239659 26.8339696,153.063259 C23.858276,154.431322 24.4867816,158.261899 26.6124825,159.96293 C19.4414779,187.571744 22.7378964,216.903305 22.8702134,245.13752 C22.8860339,248.611966 25.6129141,251.002095 28.9078943,251.214905 C55.5481907,252.941994 82.1784195,251.309004 108.837413,251.11791 C110.505757,251.106328 111.791533,250.509882 112.733572,249.615212 C115.312315,250.670575 118.83885,249.592049 119.619808,246.465048 C123.032723,232.788761 122.527905,217.13783 123.66842,203.077906 C124.30124,195.279223 124.762911,187.454482 124.80462,179.641322 C125.043365,179.081067 125.080759,178.438295 124.819002,177.820133 Z M112.818428,166.600569 C112.028841,165.918709 111.230624,165.242639 110.478431,164.539064 C108.191649,162.397937 106.041498,160.136652 103.907167,157.859442 C106.582271,158.018688 109.281825,158.214125 111.920974,158.31112 C112.33806,161.064618 112.608447,163.831146 112.818428,166.600569 Z M34.8247641,239.361254 C34.6694355,232.250221 34.4091162,225.159457 34.1473588,218.078826 C38.5785391,224.597755 44.1042109,230.663558 49.215673,236.185031 C50.3835141,237.445966 51.5642993,238.68808 52.8098047,239.836095 C46.8138324,239.785426 40.8207365,239.652239 34.8247641,239.361254 Z M82.6904287,239.510365 C82.5552353,239.343882 82.4286712,239.187531 82.3625127,239.103566 C78.4260828,234.059829 73.8251916,230.252415 69.0229484,226.071499 C57.4797309,216.023112 47.2366714,204.490847 38.5483363,191.872819 C37.1690757,189.867774 33.9776479,191.660009 35.2576707,193.808374 C42.7436472,206.380077 52.1741079,217.315895 62.4948317,227.610389 C66.5650169,231.669699 70.6280108,235.409072 74.2969303,239.634866 C70.679787,239.691326 67.0626437,239.769501 63.4469387,239.795559 C63.4469387,239.342434 63.4095447,238.886413 63.2988012,238.433287 C62.83713,236.571563 60.6467088,236.257416 59.347989,237.137608 C58.578537,236.549848 57.8076468,235.966431 57.0626448,235.349717 C53.6971913,232.557131 50.6337658,229.379461 47.6178018,226.216267 C42.8774024,221.242019 37.6825231,215.9681 33.8553985,210.112211 C33.3692774,196.395389 33.0586202,182.694491 33.5605618,168.929895 C54.0581866,194.71173 86.6254204,210.970689 103.528914,239.230962 C96.5822725,239.293213 89.6356315,239.384417 82.6904287,239.510365 Z M112.08637,203.077906 C111.358627,213.049566 109.155261,224.034605 109.053147,234.524536 C103.503025,223.313657 90.2166756,213.721292 82.0921259,206.584201 C65.8315206,192.302781 47.2625595,178.973939 33.90286,161.635007 C33.9474451,160.896687 33.9560744,160.159815 34.0049742,159.421495 C35.6488687,158.964026 37.3057073,158.56157 38.9711753,158.202544 C47.4941142,170.671461 60.7430701,181.077426 71.5657355,191.138842 C79.6212502,198.62772 89.5335173,211.499094 100.199416,215.315194 C102.30642,216.06799 103.914359,213.476633 102.944993,211.719142 C97.9270156,202.603065 85.3842296,195.444259 77.727104,188.792143 C66.1364249,178.723489 54.5788251,168.485456 44.0711316,157.255757 C47.947156,156.637595 51.8835859,156.307523 55.8387128,156.081684 C53.9805223,159.640096 71.1285142,174.710504 72.8630171,176.431803 C79.619812,183.140378 86.4873505,189.740377 93.4843295,196.195608 C97.2452956,199.664263 103.301674,207.341341 108.838851,207.507825 C110.361935,207.55415 111.981379,205.779288 111.328424,204.218683 C109.575224,200.031975 104.092699,197.277029 100.701357,194.490234 C94.6090237,189.482689 88.6907157,184.256544 82.8011722,179.010131 C74.729837,171.820923 64.9786514,161.128317 56.5664561,157.181925 C57.3128964,157.532265 57.8320967,156.584031 57.1992764,156.093266 C57.1661972,156.061417 57.1230503,156.04694 57.0870946,156.017986 C63.9416891,155.689361 70.8854536,155.844264 77.8335329,156.197499 C82.8112398,163.366439 88.4864873,170.00263 94.5845739,176.262423 C99.3911317,181.197584 105.860281,188.192801 112.81699,192.110239 C112.611323,195.774332 112.351004,199.434081 112.08637,203.077906 Z M113.150659,184.396969 C108.705096,181.290236 104.199128,178.244305 100.113122,174.571526 C93.9675741,169.051501 88.1398744,162.971221 82.8802748,156.492827 C87.9471519,156.808422 93.0025231,157.186268 98.0219387,157.530818 C100.491376,160.544899 103.108951,163.446061 105.740908,166.293659 C108.093849,168.838691 110.551781,171.589294 113.180861,174.129982 C113.258526,177.547968 113.257087,180.971745 113.150659,184.396969 Z" id="Shape"></path>
                    <path d="M250.009802,197.609225 C249.022767,186.875589 248.538698,172.951146 242.689169,163.533844 C243.263365,163.281595 243.809941,163.00615 244.298371,162.672718 C246.583525,161.114282 247.890366,157.165278 245.272323,155.131338 C240.703469,151.582453 234.419295,152.020265 228.873581,151.359198 C215.877858,149.81091 202.886496,148.314812 189.835533,147.323212 C186.406349,147.060814 181.897094,146.569364 177.024425,146.254777 C176.87179,146.053268 176.707527,145.864806 176.554892,145.663296 C175.676882,144.497731 173.96447,145.019626 173.657747,146.063416 C167.613428,145.809717 161.224591,145.960486 155.662886,147.266673 C154.972398,146.957885 154.158348,147.202886 153.762952,147.737828 C148.641707,149.251323 144.40138,151.898489 142.081338,156.347643 C133.295415,173.200495 138.214601,200.137516 139.889218,218.037058 C140.210477,221.477214 141.700479,254.042 151.034432,246.934083 C151.61735,248.38959 152.928551,249.555155 155.026183,249.634889 C185.97025,250.8193 216.853264,249.086899 247.529858,244.949433 C250.156622,244.595704 252.012946,241.516525 251.999932,239.094063 C251.92718,225.230508 251.277394,211.419142 250.009802,197.609225 Z M233.119723,164.954558 C233.029596,169.136965 233.548553,173.404904 234.271022,177.688791 C234.022446,177.430743 233.765148,177.172695 233.525294,176.918996 C229.002957,172.117564 224.410844,167.506043 219.365189,163.30479 C224.002365,164.144171 228.800898,164.857427 233.119723,164.954558 Z M213.858724,162.256651 C213.726441,162.81044 213.81366,163.401921 214.320988,163.842632 C219.536721,168.375868 224.345429,173.315022 228.944811,178.462935 C231.510521,181.333356 233.753519,184.782211 236.202937,187.975917 C236.710264,190.63903 237.182704,193.286197 237.518499,195.905819 C233.196767,192.040898 229.180304,187.819349 225.158025,183.654338 C217.74145,175.979585 210.697013,167.91921 203.17432,160.344487 C205.978431,160.667772 209.733236,161.437567 213.858724,162.256651 Z M198.779905,159.821142 C208.410405,170.066227 216.857625,181.3638 226.027314,192.009004 C228.585756,194.978006 233.266543,201.568377 238.332549,205.150605 C238.601476,208.458838 238.92855,211.764172 239.105896,215.078204 C222.550159,195.569487 203.661297,177.993229 186.944203,158.455518 C191.582833,158.917974 195.753384,159.445668 198.779905,159.821142 Z M172.435219,239.713089 C170.599246,238.908501 168.987137,237.060123 167.649769,235.73509 C163.402174,231.526589 159.567418,226.85563 155.700681,222.300648 C155.348896,221.887482 154.808134,221.962866 154.434543,222.245559 C153.588513,221.306149 153.081186,220.424726 153.075371,218.951823 C153.075371,218.854693 152.922737,218.854693 152.92419,218.951823 C152.931459,220.601591 153.389362,221.367037 154.340055,222.377483 C154.053684,222.670324 153.896689,223.080591 154.188875,223.463314 C158.468451,229.093979 162.8367,234.663756 167.514579,239.972586 C163.349842,240.195841 159.185105,240.436493 155.021822,240.636552 C154.460709,240.664097 154.00426,240.823565 153.552172,240.987382 C154.44908,232.668958 151.162354,218.957622 150.83528,214.228675 C150.55327,210.160795 150.221836,205.965341 149.951455,201.708999 C156.312672,211.091508 164.793327,219.357742 172.634371,227.193412 C175.069252,229.624572 179.670087,235.062426 184.587819,238.946193 C180.536468,239.214389 176.488024,239.482585 172.435219,239.713089 Z M194.661685,238.238736 C177.568094,226.80779 160.03695,210.907395 149.535708,193.186167 C149.401971,189.289352 149.431045,185.392538 149.582225,181.521818 C158.843495,191.034801 167.632325,201.027636 176.416795,210.958135 C183.817379,219.324398 191.074052,229.989898 199.764033,237.806723 C198.063251,237.938646 196.365375,238.112611 194.661685,238.238736 Z M207.504774,237.147106 C200.621693,227.315188 190.764422,218.798154 182.695154,210.115854 C172.074711,198.696506 161.335069,187.364141 149.836616,176.816067 C150.22765,172.078422 150.919593,167.42196 152.123223,162.955411 C163.512652,176.785623 175.697233,190.082343 187.569277,203.44285 C194.757627,211.533669 201.982319,219.592594 209.343655,227.528295 C211.825053,230.203005 215.076891,234.613017 219.039569,235.268284 C221.051435,235.600268 223.26536,233.047332 221.284021,231.425109 C209.672182,221.920825 199.293047,208.20224 188.893561,197.261296 C177.25701,185.017064 165.79926,172.603216 154.22667,160.302445 C155.630906,159.345638 157.705279,158.701968 160.144521,158.261257 C171.996214,174.537126 185.566133,189.776454 198.894744,204.725841 C205.408596,212.032368 216.433156,227.460158 227.826946,235.156657 C221.060157,235.890209 214.2861,236.562874 207.504774,237.147106 Z M239.624853,233.796831 C224.708844,224.762252 212.165209,209.796919 200.25537,197.510645 C187.854194,184.716974 175.62455,171.531882 164.281638,157.717616 C169.458123,157.30445 175.652169,157.532054 181.586011,157.987262 C189.435777,168.433856 197.948411,178.390449 206.503202,188.26006 C216.111897,199.348875 226.178495,213.077607 238.851506,220.658129 C239.025945,220.762508 239.193116,220.8031 239.36174,220.85384 C239.534726,225.163821 239.668463,229.475252 239.735331,233.788133 C239.69899,233.788133 239.662648,233.791032 239.624853,233.796831 Z" id="Shape"></path>
                </g>
            </g>
        </g>
    </g>
</svg>
