<?xml version="1.0" encoding="UTF-8"?>
<svg width="440px" height="440px" viewBox="0 0 440 440" version="1.1" xmlns="http://www.w3.org/2000/svg" xmlns:xlink="http://www.w3.org/1999/xlink">
    <title>icon_templ</title>
    <defs>
        <filter x="-2.8%" y="-2.8%" width="105.7%" height="105.7%" filterUnits="objectBoundingBox" id="filter-1">
            <feOffset dx="0" dy="2" in="SourceAlpha" result="shadowOffsetOuter1"></feOffset>
            <feGaussianBlur stdDeviation="2" in="shadowOffsetOuter1" result="shadowBlurOuter1"></feGaussianBlur>
            <feColorMatrix values="0 0 0 0 0   0 0 0 0 0   0 0 0 0 0  0 0 0 0.5 0" type="matrix" in="shadowBlurOuter1" result="shadowMatrixOuter1"></feColorMatrix>
            <feMerge>
                <feMergeNode in="shadowMatrixOuter1"></feMergeNode>
                <feMergeNode in="SourceGraphic"></feMergeNode>
            </feMerge>
        </filter>
        <rect id="path-2" x="8.2421875" y="117.039062" width="405.515625" height="296.71875"></rect>
        <filter x="-1.7%" y="-1.7%" width="103.5%" height="104.7%" filterUnits="objectBoundingBox" id="filter-3">
            <feOffset dx="0" dy="2" in="SourceAlpha" result="shadowOffsetOuter1"></feOffset>
            <feGaussianBlur stdDeviation="2" in="shadowOffsetOuter1" result="shadowBlurOuter1"></feGaussianBlur>
            <feColorMatrix values="0 0 0 0 0   0 0 0 0 0   0 0 0 0 0  0 0 0 0.5 0" type="matrix" in="shadowBlurOuter1"></feColorMatrix>
        </filter>
    </defs>
    <g id="Welcome" stroke="none" stroke-width="1" fill="none" fill-rule="evenodd">
        <g id="Artboard" transform="translate(-1038.000000, 9.000000)" fill-rule="nonzero">
            <g id="icon_templ" filter="url(#filter-1)" transform="translate(1047.000000, 0.000000)">
                <g id="Box">
                    <circle id="Oval" fill="#878791" cx="211" cy="31.3203125" r="23.078125"></circle>
                    <g id="Rectangle">
                        <use fill="black" fill-opacity="1" filter="url(#filter-3)" xlink:href="#path-2"></use>
                        <use fill="#F0F0FA" xlink:href="#path-2"></use>
                    </g>
                    <path d="M282.904844,422 C280.736324,422 278.610664,421.118086 277.069375,419.585039 C275.536328,418.051992 274.662656,415.925508 274.662656,413.757812 C274.662656,411.590117 275.536328,409.463633 277.069375,407.930586 C278.610664,406.397539 280.728082,405.515625 282.904844,405.515625 C285.072539,405.515625 287.199023,406.397539 288.731246,407.930586 C290.264293,409.463633 291.147031,411.590117 291.147031,413.757812 C291.147031,415.925508 290.265117,418.051992 288.731246,419.585039 C287.190781,421.118086 285.072539,422 282.904844,422 Z" id="Path" fill="#000000"></path>
                    <path d="M413.757812,108.796875 L314.85898,108.796875 L239.346531,44.6240273 C241.250477,40.583707 242.320312,36.0752305 242.320312,31.3203125 C242.320312,14.050457 228.269855,0 211,0 C193.730145,0 179.679688,14.050457 179.679688,31.3203125 C179.679688,36.0752305 180.749523,40.583707 182.654293,44.6248516 L107.141844,108.796875 L8.2421875,108.796875 C3.69085156,108.796875 0,112.486902 0,117.039062 L0,413.757812 C0,418.309973 3.69085156,422 8.2421875,422 L240.671875,422 C245.223211,422 248.914062,418.309973 248.914062,413.757812 C248.914062,409.205652 245.223211,405.515625 240.671875,405.515625 L16.484375,405.515625 L16.484375,125.28125 L405.515625,125.28125 L405.515625,405.515625 L324.742188,405.515625 C320.190852,405.515625 316.5,409.205652 316.5,413.757812 C316.5,418.309973 320.190852,422 324.742188,422 L413.757812,422 C418.309148,422 422,418.309973 422,413.757812 L422,117.039062 C422,112.487727 418.309973,108.796875 413.757812,108.796875 Z M211,16.484375 C219.180371,16.484375 225.835938,23.1399414 225.835938,31.3203125 C225.835938,39.5006836 219.180371,46.15625 211,46.15625 C202.819629,46.15625 196.164062,39.5006836 196.164062,31.3203125 C196.164062,23.1399414 202.819629,16.484375 211,16.484375 Z M193.34441,57.1727578 C198.374617,60.6196406 204.454879,62.640625 211,62.640625 C217.545121,62.640625 223.625383,60.6196406 228.656414,57.1727578 L289.402984,108.796875 L132.597016,108.796875 L193.34441,57.1727578 Z" id="Shape" fill="#000000"></path>
                </g>
                <g id="caduceus-symbol" transform="translate(77.000000, 133.000000)" fill="#000000">
                    <path d="M263.746094,40.0568074 L185.333645,40.0568074 C163.954449,40.0568074 145.54266,54.4468703 140.55933,75.0505612 C140.556703,75.0605434 140.554602,75.0700002 140.551975,75.0799823 L139.753381,78.4655086 L139.753381,51.5058125 C151.580975,48.9766499 160.47216,38.5211318 160.47216,26.0444902 C160.47216,11.683323 148.692902,0 134.214188,0 C119.735473,0 107.957266,11.6838484 107.957266,26.0450156 C107.957266,38.7218256 117.134789,49.3118402 129.246094,51.6219207 L129.246094,78.4655086 L128.4475,75.0799823 C128.444873,75.0700002 128.442771,75.0605434 128.440145,75.0505612 C123.45734,54.4468703 105.045551,40.0568074 83.6658301,40.0568074 L5.25390625,40.0568074 C2.35217383,40.0568074 0,42.4089181 0,45.3105726 L0,49.5986957 C0,59.9254966 5.85810547,68.9194172 14.4529707,73.4838885 L14.4529707,75.7072819 C14.4529707,86.033032 20.312127,95.027478 28.905416,99.5924746 L28.905416,101.815868 C28.905416,116.744967 41.1517461,128.890622 56.2036621,128.890622 L129.246094,128.890622 L129.246094,145.463099 L102.203187,145.463099 C91.707459,145.463099 83.1682852,154.013076 83.1682852,164.522708 C83.1682852,175.03234 91.707459,183.582317 102.203187,183.582317 L129.246094,183.582317 L129.246094,200.44165 L103.207209,200.44165 C93.9739941,200.44165 86.4624844,207.962415 86.4624844,217.207465 C86.4624844,226.452516 93.9739941,233.973281 103.207209,233.973281 L129.246094,233.973281 L129.246094,246.746235 C129.246094,249.647889 131.598268,252 134.5,252 C137.401207,252 139.753906,249.647889 139.753906,246.746235 L139.753906,233.973281 L181.147332,233.973281 C184.048539,233.973281 186.401238,231.62117 186.401238,228.719516 C186.401238,225.817861 184.048539,223.46575 181.147332,223.46575 L139.753906,223.46575 L139.753906,210.949706 L167.488752,210.949706 C177.91723,210.949706 186.401238,202.454367 186.401238,192.012509 C186.401238,181.570651 177.91723,173.075312 167.488752,173.075312 L139.753906,173.075312 L139.753906,155.971154 L167.631658,155.971154 C177.980803,155.971154 186.401238,147.540437 186.401238,137.177385 C186.401238,134.185892 185.716654,131.378279 184.487766,128.891147 L212.796338,128.891147 C227.848254,128.891147 240.094584,116.745493 240.094584,101.816393 L240.094584,99.593 C248.687348,95.0280034 254.547029,86.0335574 254.547029,75.7078073 L254.547029,73.4844138 C263.141895,68.9194172 269,59.9249712 269,49.5986957 L269,45.3105726 C269,42.4089181 266.647301,40.0568074 263.746094,40.0568074 Z M118.465078,26.0450156 C118.465078,17.4777007 125.530006,10.5080558 134.214713,10.5080558 C142.89942,10.5080558 149.964873,17.4782261 149.964873,26.0450156 C149.964873,34.6118051 142.89942,41.5819754 134.214713,41.5819754 C125.530006,41.5819754 118.465078,34.6118051 118.465078,26.0450156 L118.465078,26.0450156 Z M56.2036621,118.383617 C47.2735977,118.383617 39.949127,111.470187 39.4415996,102.782035 L76.1527441,102.782035 C79.0539512,102.782035 81.4066504,100.429925 81.4066504,97.5282703 C81.4066504,94.6266157 79.0539512,92.2745051 76.1527441,92.2745051 L41.7512168,92.2745051 C32.8211523,92.2745051 25.497207,85.3605501 24.9891543,76.6729239 L26.8647988,76.6729239 C26.9588438,76.6781777 27.0534141,76.6808046 27.1490352,76.6808046 L75.6615039,76.6808046 C78.5627109,76.6808046 80.9154102,74.3286939 80.9154102,71.4270394 C80.9154102,68.5253849 78.5627109,66.1732742 75.6615039,66.1732742 L27.5830078,66.1732742 C27.4889629,66.1685458 27.3943926,66.1653935 27.2987715,66.1653935 C18.368707,66.1653935 11.0442363,59.2519639 10.536709,50.5643378 L83.6668809,50.5643378 C100.172027,50.5643378 114.380166,61.6413763 118.223924,77.5051203 L127.863791,118.383617 L56.2036621,118.383617 Z M129.246094,223.46575 L103.207209,223.46575 C99.768002,223.46575 96.9702969,220.658138 96.9702969,217.207465 C96.9702969,213.756792 99.768002,210.94918 103.207209,210.94918 L129.246094,210.94918 L129.246094,223.46575 Z M167.488752,183.582843 C172.123223,183.582843 175.893426,187.364503 175.893426,192.012509 C175.893426,196.660515 172.123223,200.442175 167.488752,200.442175 L139.753906,200.442175 L139.753906,183.582843 L167.488752,183.582843 Z M129.246094,173.075312 L102.203188,173.075312 C97.5014668,173.075312 93.6760977,169.239013 93.6760977,164.523233 C93.6760977,159.807454 97.5009414,155.971154 102.203188,155.971154 L129.246094,155.971154 L129.246094,173.075312 Z M175.893426,137.177385 C175.893426,141.746585 172.18732,145.463624 167.631658,145.463624 L139.753906,145.463624 L139.753906,128.891147 L167.062135,128.891147 C172.096953,128.891147 175.893426,132.4532 175.893426,137.177385 Z M241.701754,66.1653935 C241.606658,66.1653935 241.511562,66.1680204 241.418043,66.1732742 L216.216105,66.1732742 C213.314898,66.1732742 210.962199,68.5253849 210.962199,71.4270394 C210.962199,74.3286939 213.314898,76.6808046 216.216105,76.6808046 L244.010846,76.6808046 C243.499115,85.3647531 236.176746,92.2745051 227.249309,92.2745051 L192.847781,92.2745051 C189.946574,92.2745051 187.593875,94.6266157 187.593875,97.5282703 C187.593875,100.429925 189.946574,102.782035 192.847781,102.782035 L229.558926,102.782035 C229.050873,111.470187 221.726928,118.383617 212.796863,118.383617 L141.136734,118.383617 L150.776602,77.5051203 C154.620359,61.6413763 168.828498,50.5643378 185.333645,50.5643378 L258.463816,50.5643378 C257.955764,59.2519639 250.631818,66.1653935 241.701754,66.1653935 L241.701754,66.1653935 Z" id="Shape"></path>
                    <path d="M189.216478,75.1686449 C190.986894,76.3481736 193.352791,76.2615613 195.044577,74.978899 C196.684278,73.7357879 197.387436,71.5159109 196.78895,69.5513648 C196.183453,67.5622869 194.346928,66.1164131 192.267003,66.006771 C190.165542,65.8961276 188.180773,67.1507536 187.373944,69.0907679 C186.47296,71.2560741 187.243729,73.8779721 189.216478,75.1686449 Z" id="Path"></path>
                </g>
            </g>
        </g>
    </g>
</svg>
