<?xml version="1.0" encoding="UTF-8"?>
<svg width="440px" height="440px" viewBox="0 0 440 440" version="1.1" xmlns="http://www.w3.org/2000/svg" xmlns:xlink="http://www.w3.org/1999/xlink">
    <title>icon_templ copy 6</title>
    <defs>
        <filter x="-2.8%" y="-2.8%" width="105.7%" height="105.7%" filterUnits="objectBoundingBox" id="filter-1">
            <feOffset dx="0" dy="2" in="SourceAlpha" result="shadowOffsetOuter1"></feOffset>
            <feGaussianBlur stdDeviation="2" in="shadowOffsetOuter1" result="shadowBlurOuter1"></feGaussianBlur>
            <feColorMatrix values="0 0 0 0 0   0 0 0 0 0   0 0 0 0 0  0 0 0 0.5 0" type="matrix" in="shadowBlurOuter1" result="shadowMatrixOuter1"></feColorMatrix>
            <feMerge>
                <feMergeNode in="shadowMatrixOuter1"></feMergeNode>
                <feMergeNode in="SourceGraphic"></feMergeNode>
            </feMerge>
        </filter>
        <rect id="path-2" x="8.2421875" y="117.039062" width="405.515625" height="296.71875"></rect>
        <filter x="-1.7%" y="-1.7%" width="103.5%" height="104.7%" filterUnits="objectBoundingBox" id="filter-3">
            <feOffset dx="0" dy="2" in="SourceAlpha" result="shadowOffsetOuter1"></feOffset>
            <feGaussianBlur stdDeviation="2" in="shadowOffsetOuter1" result="shadowBlurOuter1"></feGaussianBlur>
            <feColorMatrix values="0 0 0 0 0   0 0 0 0 0   0 0 0 0 0  0 0 0 0.5 0" type="matrix" in="shadowBlurOuter1"></feColorMatrix>
        </filter>
    </defs>
    <g id="Welcome" stroke="none" stroke-width="1" fill="none" fill-rule="evenodd">
        <g id="Artboard" transform="translate(-4071.000000, 9.000000)" fill-rule="nonzero">
            <g id="icon_templ-copy-6" filter="url(#filter-1)" transform="translate(4080.000000, 0.000000)">
                <g id="Box">
                    <circle id="Oval" fill="#878791" cx="211" cy="31.3203125" r="23.078125"></circle>
                    <g id="Rectangle">
                        <use fill="black" fill-opacity="1" filter="url(#filter-3)" xlink:href="#path-2"></use>
                        <use fill="#F0F0FA" xlink:href="#path-2"></use>
                    </g>
                    <path d="M282.904844,422 C280.736324,422 278.610664,421.118086 277.069375,419.585039 C275.536328,418.051992 274.662656,415.925508 274.662656,413.757812 C274.662656,411.590117 275.536328,409.463633 277.069375,407.930586 C278.610664,406.397539 280.728082,405.515625 282.904844,405.515625 C285.072539,405.515625 287.199023,406.397539 288.731246,407.930586 C290.264293,409.463633 291.147031,411.590117 291.147031,413.757812 C291.147031,415.925508 290.265117,418.051992 288.731246,419.585039 C287.190781,421.118086 285.072539,422 282.904844,422 Z" id="Path" fill="#000000"></path>
                    <path d="M413.757812,108.796875 L314.85898,108.796875 L239.346531,44.6240273 C241.250477,40.583707 242.320312,36.0752305 242.320312,31.3203125 C242.320312,14.050457 228.269855,0 211,0 C193.730145,0 179.679688,14.050457 179.679688,31.3203125 C179.679688,36.0752305 180.749523,40.583707 182.654293,44.6248516 L107.141844,108.796875 L8.2421875,108.796875 C3.69085156,108.796875 0,112.486902 0,117.039062 L0,413.757812 C0,418.309973 3.69085156,422 8.2421875,422 L240.671875,422 C245.223211,422 248.914062,418.309973 248.914062,413.757812 C248.914062,409.205652 245.223211,405.515625 240.671875,405.515625 L16.484375,405.515625 L16.484375,125.28125 L405.515625,125.28125 L405.515625,405.515625 L324.742188,405.515625 C320.190852,405.515625 316.5,409.205652 316.5,413.757812 C316.5,418.309973 320.190852,422 324.742188,422 L413.757812,422 C418.309148,422 422,418.309973 422,413.757812 L422,117.039062 C422,112.487727 418.309973,108.796875 413.757812,108.796875 Z M211,16.484375 C219.180371,16.484375 225.835938,23.1399414 225.835938,31.3203125 C225.835938,39.5006836 219.180371,46.15625 211,46.15625 C202.819629,46.15625 196.164062,39.5006836 196.164062,31.3203125 C196.164062,23.1399414 202.819629,16.484375 211,16.484375 Z M193.34441,57.1727578 C198.374617,60.6196406 204.454879,62.640625 211,62.640625 C217.545121,62.640625 223.625383,60.6196406 228.656414,57.1727578 L289.402984,108.796875 L132.597016,108.796875 L193.34441,57.1727578 Z" id="Shape" fill="#000000"></path>
                </g>
                <g id="information" transform="translate(79.000000, 133.000000)" fill="#000000">
                    <ellipse id="Oval" cx="126.382979" cy="186.185567" rx="12.2553191" ry="12.1237113"></ellipse>
                    <path d="M126,0 C56.3633438,0 0,56.3539922 0,126 C0,195.636656 56.3539922,252 126,252 C195.636656,252 252,195.646008 252,126 C252,56.3633438 195.646008,0 126,0 Z M126,232.3125 C67.2441328,232.3125 19.6875,184.763742 19.6875,126 C19.6875,67.2441328 67.2362578,19.6875 126,19.6875 C184.755867,19.6875 232.3125,67.2362578 232.3125,126 C232.3125,184.755867 184.763742,232.3125 126,232.3125 Z" id="Shape"></path>
                    <path d="M126.765957,63.2164948 C105.014987,63.2164948 87.3191489,80.8275134 87.3191489,102.474227 C87.3191489,107.894738 91.734233,112.28866 97.1808511,112.28866 C102.627469,112.28866 107.042553,107.894738 107.042553,102.474227 C107.042553,91.6508701 115.890472,82.8453608 126.765957,82.8453608 C137.641443,82.8453608 146.489362,91.6508701 146.489362,102.474227 C146.489362,113.297584 137.641443,122.103093 126.765957,122.103093 C121.319339,122.103093 116.904255,126.497014 116.904255,131.917526 L116.904255,156.453608 C116.904255,161.87412 121.319339,166.268041 126.765957,166.268041 C132.212576,166.268041 136.62766,161.87412 136.62766,156.453608 L136.62766,140.489942 C153.622331,136.121047 166.212766,120.733489 166.212766,102.474227 C166.212766,80.8275134 148.516928,63.2164948 126.765957,63.2164948 Z" id="Path"></path>
                </g>
            </g>
        </g>
    </g>
</svg>
