<?xml version="1.0" encoding="UTF-8"?>
<svg width="440px" height="440px" viewBox="0 0 440 440" version="1.1" xmlns="http://www.w3.org/2000/svg" xmlns:xlink="http://www.w3.org/1999/xlink">
    <title>world-map</title>
    <defs>
        <filter x="-2.8%" y="-2.8%" width="105.7%" height="105.7%" filterUnits="objectBoundingBox" id="filter-1">
            <feOffset dx="0" dy="2" in="SourceAlpha" result="shadowOffsetOuter1"></feOffset>
            <feGaussianBlur stdDeviation="2" in="shadowOffsetOuter1" result="shadowBlurOuter1"></feGaussianBlur>
            <feColorMatrix values="0 0 0 0 0   0 0 0 0 0   0 0 0 0 0  0 0 0 0.5 0" type="matrix" in="shadowBlurOuter1" result="shadowMatrixOuter1"></feColorMatrix>
            <feMerge>
                <feMergeNode in="shadowMatrixOuter1"></feMergeNode>
                <feMergeNode in="SourceGraphic"></feMergeNode>
            </feMerge>
        </filter>
        <rect id="path-2" x="8.2421875" y="117.039062" width="405.515625" height="296.71875"></rect>
        <filter x="-1.7%" y="-1.7%" width="103.5%" height="104.7%" filterUnits="objectBoundingBox" id="filter-3">
            <feOffset dx="0" dy="2" in="SourceAlpha" result="shadowOffsetOuter1"></feOffset>
            <feGaussianBlur stdDeviation="2" in="shadowOffsetOuter1" result="shadowBlurOuter1"></feGaussianBlur>
            <feColorMatrix values="0 0 0 0 0   0 0 0 0 0   0 0 0 0 0  0 0 0 0.5 0" type="matrix" in="shadowBlurOuter1"></feColorMatrix>
        </filter>
    </defs>
    <g id="Welcome" stroke="none" stroke-width="1" fill="none" fill-rule="evenodd">
        <g id="Artboard" transform="translate(-422.000000, 9.000000)" fill-rule="nonzero">
            <g id="world-map" filter="url(#filter-1)" transform="translate(431.000000, 0.000000)">
                <g id="Box">
                    <circle id="Oval" fill="#878791" cx="211" cy="31.3203125" r="23.078125"></circle>
                    <g id="Rectangle">
                        <use fill="black" fill-opacity="1" filter="url(#filter-3)" xlink:href="#path-2"></use>
                        <use fill="#F0F0FA" xlink:href="#path-2"></use>
                    </g>
                    <path d="M282.904844,422 C280.736324,422 278.610664,421.118086 277.069375,419.585039 C275.536328,418.051992 274.662656,415.925508 274.662656,413.757812 C274.662656,411.590117 275.536328,409.463633 277.069375,407.930586 C278.610664,406.397539 280.728082,405.515625 282.904844,405.515625 C285.072539,405.515625 287.199023,406.397539 288.731246,407.930586 C290.264293,409.463633 291.147031,411.590117 291.147031,413.757812 C291.147031,415.925508 290.265117,418.051992 288.731246,419.585039 C287.190781,421.118086 285.072539,422 282.904844,422 Z" id="Path" fill="#000000"></path>
                    <path d="M413.757812,108.796875 L314.85898,108.796875 L239.346531,44.6240273 C241.250477,40.583707 242.320312,36.0752305 242.320312,31.3203125 C242.320312,14.050457 228.269855,0 211,0 C193.730145,0 179.679688,14.050457 179.679688,31.3203125 C179.679688,36.0752305 180.749523,40.583707 182.654293,44.6248516 L107.141844,108.796875 L8.2421875,108.796875 C3.69085156,108.796875 0,112.486902 0,117.039062 L0,413.757812 C0,418.309973 3.69085156,422 8.2421875,422 L240.671875,422 C245.223211,422 248.914062,418.309973 248.914062,413.757812 C248.914062,409.205652 245.223211,405.515625 240.671875,405.515625 L16.484375,405.515625 L16.484375,125.28125 L405.515625,125.28125 L405.515625,405.515625 L324.742188,405.515625 C320.190852,405.515625 316.5,409.205652 316.5,413.757812 C316.5,418.309973 320.190852,422 324.742188,422 L413.757812,422 C418.309148,422 422,418.309973 422,413.757812 L422,117.039062 C422,112.487727 418.309973,108.796875 413.757812,108.796875 Z M211,16.484375 C219.180371,16.484375 225.835938,23.1399414 225.835938,31.3203125 C225.835938,39.5006836 219.180371,46.15625 211,46.15625 C202.819629,46.15625 196.164062,39.5006836 196.164062,31.3203125 C196.164062,23.1399414 202.819629,16.484375 211,16.484375 Z M193.34441,57.1727578 C198.374617,60.6196406 204.454879,62.640625 211,62.640625 C217.545121,62.640625 223.625383,60.6196406 228.656414,57.1727578 L289.402984,108.796875 L132.597016,108.796875 L193.34441,57.1727578 Z" id="Shape" fill="#000000"></path>
                </g>
                <g id="Map" transform="translate(31.940583, 140.220215)">
                    <path d="M298.815104,210.307656 L301.124565,209.55432 C306.469624,207.811098 312.340534,209.252656 316.269585,213.27402 L319.488983,216.568422 C325.490944,222.711324 335.448331,222.457465 341.129671,216.01702 L346.18378,210.287875 C348.564124,207.589383 349.877104,204.115301 349.877104,200.516762 L349.877104,192.487223 C349.877104,188.062816 347.89321,183.87084 344.471878,181.065199 L329.501593,168.790934 C326.860796,166.625711 323.551557,165.442133 320.136819,165.442133 L312.135304,165.442133 C310.300593,165.442133 308.481542,165.784184 306.771288,166.450152 L288.870081,173.427164 C283.198632,175.637719 279.463272,181.101465 279.463272,187.189145 L279.463272,196.266266 C279.463272,202.523734 283.406335,208.102871 289.306093,210.189793 L289.306093,210.189793 C292.377132,211.276113 295.719339,211.317324 298.815104,210.307656 Z" id="Path" fill="#6E87F5"></path>
                    <path d="M250.960964,140.765848 L250.960964,140.765848 C241.91269,140.765848 233.513077,136.067801 228.777116,128.358059 L217.982323,110.785715 L202.040284,110.785715 C197.877979,110.785715 193.77337,109.816434 190.050374,107.955348 L190.050374,107.955348 C188.795089,107.327293 188.00219,106.044809 188.00219,104.641164 L188.00219,104.641164 C188.00219,102.594629 186.343038,100.935477 184.296503,100.935477 L172.990694,100.935477 C165.458159,100.935477 158.368229,104.494453 153.867995,110.534328 L149.469139,116.437383 C146.401397,120.554355 144.744718,125.551594 144.744718,130.685652 L144.744718,130.685652 C144.744718,137.130219 147.35337,143.30032 151.975589,147.790664 L152.794862,148.586035 C157.245643,152.909887 163.206393,155.328145 169.411112,155.328145 L185.004507,155.328145 L191.857061,179.74068 L189.761897,181.835844 C187.401335,184.196406 186.075167,187.398496 186.075167,190.736582 L186.075167,190.736582 C186.075167,193.068297 186.723003,195.353855 187.945319,197.338574 L197.826054,213.377047 C199.706097,216.428305 203.033468,218.286918 206.617171,218.286918 L206.617171,218.286918 C210.218182,218.286918 213.558741,216.410996 215.433014,213.33666 L229.624413,190.063195 C232.341862,185.606645 233.415819,180.339887 232.660011,175.174508 L232.660011,175.174508 C231.766557,169.068695 233.433952,162.865625 237.268218,158.030758 L250.960964,140.765848 Z" id="Path" fill="#F5B955"></path>
                    <path d="M59.5938543,121.559902 C59.5938543,121.559902 34.2375887,115.763996 34.7205809,114.798012 C35.2035731,113.832027 19.5071512,83.1636719 19.5071512,83.1636719 L29.495034,62.3200039 C30.2327098,60.7803633 30.6159715,59.0956602 30.6159715,57.3878789 L30.6159715,52.083207 C30.6159715,48.7096797 27.8812137,45.9749219 24.5076863,45.9749219 L15.3563856,45.9749219 C8.90522541,45.9749219 5.7970965,38.066543 10.5223426,33.6742812 L23.9002371,21.2384687 C28.8364832,16.6492187 35.3272059,14.0990859 42.0668426,14.0990859 L109.220065,14.0990859 C123.956272,14.0990859 135.902499,26.0453125 135.902499,40.7815195 L135.902499,40.7815195 C135.902499,50.1248633 130.453589,58.6110195 121.956718,62.4980352 L110.304737,67.829082 L77.4629168,93.3056836 L54.7631082,98.6185977 L59.5938543,121.559902 Z" id="Path" fill="#A5DC69"></path>
                    <path d="M51.0467059,130.008145 L64.0553504,123.003934 L92.0730184,123.003934 L109.084069,147.519496 L120.665991,153.954172 C126.471788,157.17934 128.138358,164.762977 124.219198,170.125344 L124.219198,170.125344 C122.836983,172.016926 122.091889,174.299187 122.091889,176.641617 L122.091889,182.004809 C122.091889,188.104027 117.147401,193.04934 111.047358,193.04934 L105.581139,193.04934 L86.5688856,227.571742 L86.5688856,239.079484 L86.5688856,239.079484 C87.8200496,242.371414 83.8497879,245.155625 81.1809676,242.858527 L71.5598621,234.576777 L65.5562528,182.043547 L49.2383699,168.056555 C44.272452,163.800289 42.347077,156.97823 44.3548738,150.75373 L51.0467059,130.008145 Z" id="Path" fill="#FF6E37"></path>
                    <path d="M221.120124,109.972211 L239.286729,98.537 C241.136276,97.3723789 242.258862,95.3398555 242.258862,93.1540273 L242.258862,93.1540273 C242.258862,89.641207 245.106538,86.7935312 248.619358,86.7935312 L249.31912,86.7935312 C251.3978,86.7935312 253.344604,87.8089687 254.534776,89.5134531 L270.316093,112.119301 L272.238171,95.8080117 L287.996409,86.7943555 L301.001757,101.318738 C304.510456,105.237074 310.787706,104.729355 313.62137,100.29918 L325.149718,82.2743398 C326.446214,80.2467617 326.754472,77.7419609 325.988772,75.4605234 L324.441714,70.8531406 C322.397651,64.7646367 326.927557,58.4651328 333.34987,58.4651328 L333.34987,58.4651328 L333.34987,42.5832617 L326.081909,36.9637383 C324.561225,35.7875781 324.243077,33.6190586 325.36319,32.0563398 L325.36319,32.0563398 C326.034104,31.1200273 327.115479,30.5645039 328.267737,30.5645039 L349.877104,30.5645039 L349.877104,16.8288984 L304.523643,8.24383594 L251.867604,8.24383594 L229.735682,16.7827422 C216.41878,21.9200977 202.268593,24.555125 187.995597,24.555125 L187.995597,24.555125 C180.388882,24.555125 173.560229,29.2185547 170.792503,36.3035391 L166.158745,48.1632227 L156.981069,58.413207 C155.97305,59.5390898 154.533964,60.1819805 153.023171,60.1819805 L153.023171,60.1819805 C150.088952,60.1819805 147.710257,62.5606758 147.710257,65.4948945 L147.710257,68.1760781 C147.710257,71.1102969 150.088952,73.4889922 153.023171,73.4889922 L192.678807,73.4889922 L221.120124,109.972211 Z" id="Path" fill="#FF5A5A"></path>
                    <path d="M329.896272,231.837934 C323.725347,231.837934 317.753882,229.331484 313.430854,224.908727 L310.211456,221.6135 C308.463288,219.823297 305.898319,219.194418 303.517151,219.970008 L301.208514,220.723344 C296.412386,222.288535 291.149749,222.222598 286.393182,220.539543 C277.221276,217.29377 271.059417,208.575184 271.059417,198.846105 L271.059417,189.768984 C271.059417,180.213816 276.811639,171.797719 285.71485,168.327758 L303.615233,161.350746 C306.29312,160.308109 309.103706,159.779785 311.972811,159.779785 L319.974327,159.779785 C325.280647,159.779785 330.462511,161.632629 334.564647,164.996266 L349.534932,177.271355 C354.886585,181.659496 357.9568,188.146098 357.9568,195.066238 L357.9568,203.096602 C357.9568,208.706234 355.913561,214.112285 352.202929,218.319098 L347.147995,224.049066 C342.929643,228.832008 336.853503,231.668145 330.477347,231.830516 C330.284479,231.835461 330.089964,231.837934 329.896272,231.837934 Z M305.604897,203.146055 C311.682686,203.146055 317.580796,205.567609 322.002729,210.09257 L325.222128,213.387797 C326.506261,214.700777 328.23712,215.396418 330.057819,215.351086 C331.893354,215.304105 333.572288,214.520273 334.786362,213.143828 L339.840472,207.414684 C340.892999,206.221215 341.472425,204.687344 341.472425,203.096602 L341.472425,195.066238 C341.472425,193.103773 340.601225,191.263293 339.083014,190.017898 L324.113554,177.742809 C322.949757,176.788363 321.480175,176.263336 319.975151,176.263336 L311.973636,176.263336 C311.160132,176.263336 310.361464,176.413344 309.60071,176.710062 L291.7028,183.68625 C289.177393,184.670367 287.544616,187.058129 287.544616,189.76816 L287.544616,198.845281 C287.544616,201.60559 289.292784,204.078246 291.894843,204.999723 C293.244913,205.47777 294.736749,205.496727 296.095886,205.051648 C296.09671,205.051648 296.09671,205.051648 296.09671,205.051648 L298.406171,204.298312 C300.779097,203.523547 303.207245,203.146055 305.604897,203.146055 Z" id="Shape" fill="#000000"></path>
                    <path d="M79.3421356,101.331102 C80.4960418,101.060758 81.5790653,100.544797 82.5153778,99.8186602 L114.603862,74.9272539 L125.38794,69.9934805 C136.782764,64.7794727 144.146335,53.3129414 144.146335,40.7815195 C144.146335,21.5236484 128.478761,5.85689844 109.221714,5.85689844 C104.670378,5.85689844 100.979526,9.54692578 100.979526,14.0990859 C100.979526,18.6512461 104.670378,22.3412734 109.221714,22.3412734 C119.3901,22.3412734 127.66196,30.613957 127.66196,40.7823437 C127.66196,46.8832109 124.076608,52.4656445 118.528792,55.0042383 L106.876811,60.3352852 C106.300682,60.5990352 105.755874,60.9287227 105.254749,61.3177539 L73.8338817,85.6915508 L52.8855379,90.5940039 C48.5237723,91.6152109 45.775827,95.933293 46.698952,100.317312 L48.8452176,110.514547 C45.7989051,109.75132 43.0938192,109.042492 41.1799832,108.494387 C40.8296903,107.708082 40.4390106,106.869852 40.0178348,105.966508 C38.7477137,103.241641 36.9509168,99.5376016 34.6777215,94.9565937 C32.4646942,90.4975703 30.2162254,86.0443164 28.6988387,83.0540508 L36.9261903,65.8839258 C38.1888934,63.2497227 38.8565106,60.312207 38.8565106,57.3887031 L38.8565106,52.0840312 C38.8565106,44.170707 32.4185379,37.7335586 24.5060379,37.7335586 L18.2625809,37.7335586 L29.5115184,27.2758711 C32.9344988,24.0935625 37.3935223,22.3412734 42.0660184,22.3412734 C46.6173543,22.3412734 50.3082059,18.6512461 50.3082059,14.0990859 C50.3082059,9.54692578 46.6173543,5.85689844 42.0660184,5.85689844 C33.2147332,5.85689844 24.7706121,9.17602734 18.2873074,15.2018906 L4.91023713,27.6377031 C0.258346503,31.9615547 -1.24585272,38.5750859 1.07761994,44.4863828 C3.40026838,50.3968555 9.00495588,54.2171094 15.3563856,54.2171094 L22.3729598,54.2171094 L22.3729598,57.3878789 C22.3729598,57.859332 22.2658113,58.3332578 22.0614051,58.7585547 L12.0735223,79.6022227 C10.9616512,81.9223984 10.9970926,84.6291328 12.1699559,86.9188125 C18.3763231,99.045543 25.2527801,112.936102 26.6234559,116.382984 C26.7528582,117.070383 26.9679793,117.74377 27.2696434,118.383363 C29.1241356,122.308293 31.8473543,123.249551 43.7309403,126.226629 C43.5240613,126.627199 43.341909,127.04343 43.2017918,127.477793 L36.5116082,148.220906 C33.4743621,157.633484 36.3640731,167.875227 43.8743543,174.312375 L57.7344168,186.192664 L63.3712488,235.510617 C63.6069754,237.571164 64.6108738,239.467691 66.182659,240.821059 L75.8045887,249.103633 C77.9788778,250.975434 80.6823153,251.923285 83.3964676,251.923285 C85.7257098,251.923285 88.0623699,251.224348 90.0775848,249.810812 C93.9036082,247.12798 95.7012293,242.480211 94.8110731,238.017066 L94.8110731,229.68916 L110.452272,201.289055 L111.048182,201.289055 C121.682253,201.289055 130.334077,192.63723 130.334077,182.002336 L130.334077,176.639145 C130.334077,176.040762 130.521175,175.469578 130.873116,174.986586 C134.135374,170.523441 135.325546,164.867652 134.139495,159.468195 C132.953444,154.068738 129.500792,149.432508 124.668397,146.748027 L114.762112,141.243895 L98.8439754,118.303414 C97.3043348,116.083793 94.7739832,114.760098 92.0721942,114.760098 L66.5840535,114.760098 L64.4880653,104.806008 L79.3421356,101.331102 Z M102.312288,152.217543 C103.031007,153.253586 103.978034,154.110773 105.080839,154.723992 L116.662761,161.159492 C117.624624,161.693586 117.937827,162.546652 118.039206,163.008215 C118.140585,163.468953 118.21394,164.37477 117.564456,165.263277 C115.134659,168.589 113.849702,172.52382 113.849702,176.641617 L113.849702,182.004809 C113.849702,183.550219 112.592768,184.807152 111.048182,184.807152 L105.581964,184.807152 C102.577686,184.807152 99.8116082,186.441578 98.3618074,189.073309 L79.3495535,223.595711 C79.1113543,224.02925 78.9127176,224.48257 78.756116,224.949078 L73.744866,181.107234 C73.5083153,179.040094 72.4994715,177.139445 70.9194442,175.785254 L54.6015613,161.799086 C52.151159,159.698152 51.2082528,156.355945 52.1997879,153.284082 L57.8728856,135.695254 L66.1332059,131.24777 L87.7598817,131.24777 L102.312288,152.217543 Z" id="Shape" fill="#000000"></path>
                    <path d="M351.410151,8.72847656 L306.057514,0.143414063 C305.553093,0.0478046875 305.039604,2.84217094e-14 304.525292,2.84217094e-14 L251.869253,2.84217094e-14 C250.855464,2.84217094e-14 249.849093,0.187097656 248.902065,0.552226563 L226.769319,9.09030859 C214.352464,13.8814922 201.306729,16.3104648 187.996421,16.3104648 C176.915624,16.3104648 167.149456,22.9792188 163.114905,33.3017344 L159.023483,43.7734336 L151.651671,52.0065547 C144.818897,52.6956016 139.468069,58.480793 139.468069,65.4924219 L139.468069,68.1736055 C139.468069,75.6476211 145.548331,81.728707 153.022347,81.728707 L188.652499,81.728707 L204.878069,102.542703 L202.03946,102.542703 C199.926163,102.542703 197.809569,102.174277 195.815784,101.467098 C194.422854,96.4138125 189.7858,92.6924648 184.294854,92.6924648 L172.988222,92.6924648 C162.902257,92.6924648 153.281975,97.5207383 147.256112,105.608797 L142.857257,111.512676 C138.757593,117.014336 136.500057,123.824031 136.500057,130.685652 C136.500057,139.30698 140.046671,147.695879 146.230784,153.704434 L147.049233,154.498156 C153.0718,160.349285 161.011499,163.571156 169.408639,163.571156 L178.75528,163.571156 L182.642296,177.418855 C179.526749,181.153391 177.830507,185.815172 177.830507,190.737406 C177.830507,194.597223 178.901167,198.374617 180.926272,201.66325 L190.806182,217.700898 C194.160753,223.147336 200.218761,226.52993 206.615522,226.52993 C213.046901,226.52993 219.121393,223.119313 222.468546,217.629191 L236.659944,194.354902 C240.370577,188.269695 241.845104,181.033879 240.813182,173.982688 C240.251065,170.141828 241.311835,166.194645 243.724323,163.153277 L257.417069,145.888367 C259.382007,143.410766 259.756202,140.028172 258.379757,137.180496 C257.004136,134.333645 254.121018,132.524484 250.958491,132.524484 C244.81971,132.524484 239.010616,129.275414 235.796987,124.044098 L229.785136,114.2565 L243.678167,105.512363 C246.746733,103.581219 248.926792,100.654418 249.911733,97.2874844 L263.559147,116.83548 C265.123514,119.077355 267.665405,120.35984 270.316917,120.35984 C270.98371,120.35984 271.657921,120.278242 272.324714,120.110926 C275.643843,119.277641 278.102487,116.480242 278.503057,113.081988 L279.938022,100.897562 L286.304288,97.2561641 L294.862975,106.814629 C298.268647,110.617574 303.131538,112.563555 308.230155,112.15227 C313.318882,111.740984 317.814995,109.038371 320.567061,104.736773 L332.093761,86.7127578 C334.747745,82.5636406 335.371679,77.5054102 333.80319,72.8329141 L332.255307,68.2263555 C332.13085,67.8538086 332.1836,67.5035156 332.412733,67.184543 C332.641866,66.8655703 332.957542,66.7040234 333.350694,66.7040234 C337.90203,66.7040234 341.592882,63.0139961 341.592882,58.4618359 L341.592882,42.5799648 C341.592882,41.2488516 341.270612,39.9564766 340.677175,38.8033945 L349.877929,38.8033945 C354.429264,38.8033945 358.120116,35.1133672 358.120116,30.561207 L358.120116,16.8256016 C358.120116,12.8660547 355.302112,9.46532813 351.410151,8.72847656 Z M236.476968,145.76391 L230.810464,152.908238 C225.584917,159.497043 223.286171,168.047488 224.504366,176.367152 C224.980764,179.622816 224.29996,182.962551 222.587233,185.771488 L208.395835,209.044953 C208.020815,209.660645 207.339186,210.043082 206.617171,210.043082 C205.888561,210.043082 205.225889,209.673008 204.843452,209.052371 L194.963542,193.014723 C194.540718,192.328148 194.317354,191.539371 194.317354,190.734109 C194.317354,189.573609 194.76985,188.482344 195.5883,187.662246 L197.684288,185.567082 C199.792639,183.460379 200.598725,180.380273 199.793464,177.510344 L192.940909,153.097809 C191.94278,149.541305 188.699479,147.083484 185.005331,147.083484 L169.411936,147.083484 C165.328757,147.083484 161.467292,145.516645 158.538018,142.670617 L157.719569,141.87607 C154.712819,138.955039 152.988554,134.875156 152.988554,130.682355 C152.988554,127.345094 154.086413,124.034207 156.079374,121.358793 L160.478229,115.454914 C163.409151,111.521742 168.086593,109.173543 172.992343,109.173543 L180.646862,109.173543 C181.718347,111.801152 183.716253,113.99852 186.36694,115.323863 C191.208401,117.744594 196.629288,119.024605 202.042757,119.024605 L213.37494,119.024605 L221.756421,132.668723 C225.29644,138.438254 230.476655,142.954973 236.476968,145.76391 Z M328.267737,22.320668 C324.46644,22.320668 320.874495,24.1660938 318.66394,27.2544414 C314.944241,32.4461953 315.987702,39.5740391 321.041811,43.4824844 L325.109331,46.6268789 L325.109331,52.2703047 C322.73146,53.5272383 320.637944,55.3256836 319.029893,57.5617891 C315.723952,62.158457 314.827202,68.1068437 316.629768,73.4758047 L318.132319,77.9488398 L306.886679,95.5318984 L294.138487,81.2943437 C291.544671,78.3980391 287.280163,77.708168 283.905811,79.6384883 L268.147573,88.6529687 C267.128839,89.2356914 266.260936,90.0195234 265.586725,90.9418242 L261.29337,84.7923281 C258.562733,80.8838828 254.08805,78.5513437 249.321593,78.5513437 L248.621007,78.5513437 C240.9261,78.5513437 234.602694,84.5326992 234.057061,92.0907852 L223.038905,99.0257617 L199.180245,68.4192227 C197.61835,66.4155469 195.219874,65.244332 192.679632,65.244332 L161.742581,65.244332 C162.229694,64.8346953 162.690432,64.3896172 163.11985,63.9090977 L172.29835,53.6591133 C172.956077,52.9247344 173.476983,52.0782617 173.835518,51.160082 L178.469276,39.3003984 C180.013862,35.3482695 183.753343,32.7940156 187.996421,32.7940156 C203.343374,32.7940156 218.385366,29.9933203 232.70287,24.468582 L253.403124,16.4827266 L303.75135,16.4827266 L334.582077,22.3190195 L328.267737,22.3190195 L328.267737,22.320668 L328.267737,22.320668 Z" id="Shape" fill="#000000"></path>
                    <path d="M75.2078543,22.3404492 C73.040159,22.3404492 70.9136746,21.4585352 69.3806278,19.9254883 C67.8475809,18.3924414 66.9656668,16.265957 66.9656668,14.0982617 C66.9656668,11.9305664 67.8467567,9.80408203 69.3806278,8.27103516 C70.9136746,6.73798828 73.040159,5.85607422 75.2078543,5.85607422 C77.3755496,5.85607422 79.502034,6.73798828 81.0342567,8.27103516 C82.5673035,9.80408203 83.4500418,11.9305664 83.4500418,14.0982617 C83.4500418,16.265957 82.5681278,18.3924414 81.0342567,19.9254883 C79.502034,21.4585352 77.3755496,22.3404492 75.2078543,22.3404492 Z" id="Path" fill="#000000"></path>
                </g>
            </g>
        </g>
    </g>
</svg>
