<?xml version="1.0" encoding="UTF-8"?>
<svg width="440px" height="440px" viewBox="0 0 440 440" version="1.1" xmlns="http://www.w3.org/2000/svg" xmlns:xlink="http://www.w3.org/1999/xlink">
    <title>icon_templ copy 5</title>
    <defs>
        <filter x="-2.8%" y="-2.8%" width="105.7%" height="105.7%" filterUnits="objectBoundingBox" id="filter-1">
            <feOffset dx="0" dy="2" in="SourceAlpha" result="shadowOffsetOuter1"></feOffset>
            <feGaussianBlur stdDeviation="2" in="shadowOffsetOuter1" result="shadowBlurOuter1"></feGaussianBlur>
            <feColorMatrix values="0 0 0 0 0   0 0 0 0 0   0 0 0 0 0  0 0 0 0.5 0" type="matrix" in="shadowBlurOuter1" result="shadowMatrixOuter1"></feColorMatrix>
            <feMerge>
                <feMergeNode in="shadowMatrixOuter1"></feMergeNode>
                <feMergeNode in="SourceGraphic"></feMergeNode>
            </feMerge>
        </filter>
        <rect id="path-2" x="8.2421875" y="117.039062" width="405.515625" height="296.71875"></rect>
        <filter x="-1.7%" y="-1.7%" width="103.5%" height="104.7%" filterUnits="objectBoundingBox" id="filter-3">
            <feOffset dx="0" dy="2" in="SourceAlpha" result="shadowOffsetOuter1"></feOffset>
            <feGaussianBlur stdDeviation="2" in="shadowOffsetOuter1" result="shadowBlurOuter1"></feGaussianBlur>
            <feColorMatrix values="0 0 0 0 0   0 0 0 0 0   0 0 0 0 0  0 0 0 0.5 0" type="matrix" in="shadowBlurOuter1"></feColorMatrix>
        </filter>
    </defs>
    <g id="Welcome" stroke="none" stroke-width="1" fill="none" fill-rule="evenodd">
        <g id="Artboard" transform="translate(-3565.000000, 9.000000)" fill-rule="nonzero">
            <g id="icon_templ-copy-5" filter="url(#filter-1)" transform="translate(3574.000000, 0.000000)">
                <g id="Box">
                    <circle id="Oval" fill="#878791" cx="211" cy="31.3203125" r="23.078125"></circle>
                    <g id="Rectangle">
                        <use fill="black" fill-opacity="1" filter="url(#filter-3)" xlink:href="#path-2"></use>
                        <use fill="#F0F0FA" xlink:href="#path-2"></use>
                    </g>
                    <path d="M282.904844,422 C280.736324,422 278.610664,421.118086 277.069375,419.585039 C275.536328,418.051992 274.662656,415.925508 274.662656,413.757812 C274.662656,411.590117 275.536328,409.463633 277.069375,407.930586 C278.610664,406.397539 280.728082,405.515625 282.904844,405.515625 C285.072539,405.515625 287.199023,406.397539 288.731246,407.930586 C290.264293,409.463633 291.147031,411.590117 291.147031,413.757812 C291.147031,415.925508 290.265117,418.051992 288.731246,419.585039 C287.190781,421.118086 285.072539,422 282.904844,422 Z" id="Path" fill="#000000"></path>
                    <path d="M413.757812,108.796875 L314.85898,108.796875 L239.346531,44.6240273 C241.250477,40.583707 242.320312,36.0752305 242.320312,31.3203125 C242.320312,14.050457 228.269855,0 211,0 C193.730145,0 179.679688,14.050457 179.679688,31.3203125 C179.679688,36.0752305 180.749523,40.583707 182.654293,44.6248516 L107.141844,108.796875 L8.2421875,108.796875 C3.69085156,108.796875 0,112.486902 0,117.039062 L0,413.757812 C0,418.309973 3.69085156,422 8.2421875,422 L240.671875,422 C245.223211,422 248.914062,418.309973 248.914062,413.757812 C248.914062,409.205652 245.223211,405.515625 240.671875,405.515625 L16.484375,405.515625 L16.484375,125.28125 L405.515625,125.28125 L405.515625,405.515625 L324.742188,405.515625 C320.190852,405.515625 316.5,409.205652 316.5,413.757812 C316.5,418.309973 320.190852,422 324.742188,422 L413.757812,422 C418.309148,422 422,418.309973 422,413.757812 L422,117.039062 C422,112.487727 418.309973,108.796875 413.757812,108.796875 Z M211,16.484375 C219.180371,16.484375 225.835938,23.1399414 225.835938,31.3203125 C225.835938,39.5006836 219.180371,46.15625 211,46.15625 C202.819629,46.15625 196.164062,39.5006836 196.164062,31.3203125 C196.164062,23.1399414 202.819629,16.484375 211,16.484375 Z M193.34441,57.1727578 C198.374617,60.6196406 204.454879,62.640625 211,62.640625 C217.545121,62.640625 223.625383,60.6196406 228.656414,57.1727578 L289.402984,108.796875 L132.597016,108.796875 L193.34441,57.1727578 Z" id="Shape" fill="#000000"></path>
                </g>
                <g id="reset" transform="translate(211.000000, 259.000000) scale(-1, 1) translate(-211.000000, -259.000000) translate(89.000000, 137.000000)" fill="#F0F0FA" stroke="#000000" stroke-width="13">
                    <path d="M65.1913118,63.2795353 C92.6626083,37.6514018 134.67703,33.9925174 166.42069,52.1035965 C155.662879,62.0359929 143.255935,73.6423887 143.255935,73.6423887 C134.574493,83.3595566 144.324026,88.9634688 149.279968,88.8199832 L207.290118,88.8040403 C210.34913,88.8040403 212.852735,88.8199832 212.852735,88.8199832 C212.852735,88.8199832 215.381974,88.8199832 218.449531,88.8199832 L229.702936,88.8199832 C232.770493,88.8199832 235.265553,86.4843555 235.274098,83.6146422 L235.274098,9.20138354 C235.632976,2.39378602 227.618023,-4.20655444 219.346727,3.39021423 C219.346727,3.39021423 205.658075,15.8336097 196.207607,24.5702922 C147.861543,-8.37561007 79.725892,-4.64498285 36.0537936,36.0969738 C10.5734184,59.8677651 -1.31229649,91.4027251 0.114672876,122.547085 L41.3857031,122.547085 C39.9245548,101.263379 47.7515245,79.5492151 65.1913118,63.2795353 Z" id="Path"></path>
                    <path d="M202.618336,121.452915 C204.07939,142.737962 196.252926,164.453493 178.814265,180.724197 C151.336199,206.353945 109.341579,210.01306 77.5999694,191.90084 C88.3485414,181.967818 100.754683,170.360691 100.754683,170.360691 C109.435565,160.642911 99.6866614,155.038646 94.73104,155.190113 L36.7246368,155.206057 C33.6658222,155.206057 31.1623789,155.190113 31.1623789,155.190113 C31.1623789,155.190113 28.6333032,155.190113 25.5659444,155.190113 L14.2961777,155.190113 C11.2288189,155.190113 8.73391987,157.525888 8.72537569,160.38781 L8.72537569,234.805755 C8.37506452,241.605809 16.3809564,248.206565 24.6602618,240.609318 C24.6602618,240.609318 38.3394858,228.165139 47.7978874,219.435878 C96.1579172,252.391827 164.280623,248.660965 207.941357,207.916443 C233.411542,184.144154 245.305034,152.607208 243.886701,121.460887 L202.618336,121.460887 L202.618336,121.452915 Z" id="Path"></path>
                </g>
            </g>
        </g>
    </g>
</svg>
