<?xml version="1.0" encoding="UTF-8"?>
<svg width="440px" height="440px" viewBox="0 0 440 440" version="1.1" xmlns="http://www.w3.org/2000/svg" xmlns:xlink="http://www.w3.org/1999/xlink">
    <title>icon_templ copy 7</title>
    <defs>
        <filter x="-2.8%" y="-2.8%" width="105.7%" height="105.7%" filterUnits="objectBoundingBox" id="filter-1">
            <feOffset dx="0" dy="2" in="SourceAlpha" result="shadowOffsetOuter1"></feOffset>
            <feGaussianBlur stdDeviation="2" in="shadowOffsetOuter1" result="shadowBlurOuter1"></feGaussianBlur>
            <feColorMatrix values="0 0 0 0 0   0 0 0 0 0   0 0 0 0 0  0 0 0 0.5 0" type="matrix" in="shadowBlurOuter1" result="shadowMatrixOuter1"></feColorMatrix>
            <feMerge>
                <feMergeNode in="shadowMatrixOuter1"></feMergeNode>
                <feMergeNode in="SourceGraphic"></feMergeNode>
            </feMerge>
        </filter>
        <rect id="path-2" x="8.2421875" y="117.039062" width="405.515625" height="296.71875"></rect>
        <filter x="-1.7%" y="-1.7%" width="103.5%" height="104.7%" filterUnits="objectBoundingBox" id="filter-3">
            <feOffset dx="0" dy="2" in="SourceAlpha" result="shadowOffsetOuter1"></feOffset>
            <feGaussianBlur stdDeviation="2" in="shadowOffsetOuter1" result="shadowBlurOuter1"></feGaussianBlur>
            <feColorMatrix values="0 0 0 0 0   0 0 0 0 0   0 0 0 0 0  0 0 0 0.5 0" type="matrix" in="shadowBlurOuter1"></feColorMatrix>
        </filter>
    </defs>
    <g id="Welcome" stroke="none" stroke-width="1" fill="none" fill-rule="evenodd">
        <g id="Artboard" transform="translate(-4577.000000, 9.000000)" fill-rule="nonzero">
            <g id="icon_templ-copy-7" filter="url(#filter-1)" transform="translate(4586.000000, 0.000000)">
                <g id="Box">
                    <circle id="Oval" fill="#878791" cx="211" cy="31.3203125" r="23.078125"></circle>
                    <g id="Rectangle">
                        <use fill="black" fill-opacity="1" filter="url(#filter-3)" xlink:href="#path-2"></use>
                        <use fill="#F0F0FA" xlink:href="#path-2"></use>
                    </g>
                    <path d="M282.904844,422 C280.736324,422 278.610664,421.118086 277.069375,419.585039 C275.536328,418.051992 274.662656,415.925508 274.662656,413.757812 C274.662656,411.590117 275.536328,409.463633 277.069375,407.930586 C278.610664,406.397539 280.728082,405.515625 282.904844,405.515625 C285.072539,405.515625 287.199023,406.397539 288.731246,407.930586 C290.264293,409.463633 291.147031,411.590117 291.147031,413.757812 C291.147031,415.925508 290.265117,418.051992 288.731246,419.585039 C287.190781,421.118086 285.072539,422 282.904844,422 Z" id="Path" fill="#000000"></path>
                    <path d="M413.757812,108.796875 L314.85898,108.796875 L239.346531,44.6240273 C241.250477,40.583707 242.320312,36.0752305 242.320312,31.3203125 C242.320312,14.050457 228.269855,0 211,0 C193.730145,0 179.679688,14.050457 179.679688,31.3203125 C179.679688,36.0752305 180.749523,40.583707 182.654293,44.6248516 L107.141844,108.796875 L8.2421875,108.796875 C3.69085156,108.796875 0,112.486902 0,117.039062 L0,413.757812 C0,418.309973 3.69085156,422 8.2421875,422 L240.671875,422 C245.223211,422 248.914062,418.309973 248.914062,413.757812 C248.914062,409.205652 245.223211,405.515625 240.671875,405.515625 L16.484375,405.515625 L16.484375,125.28125 L405.515625,125.28125 L405.515625,405.515625 L324.742188,405.515625 C320.190852,405.515625 316.5,409.205652 316.5,413.757812 C316.5,418.309973 320.190852,422 324.742188,422 L413.757812,422 C418.309148,422 422,418.309973 422,413.757812 L422,117.039062 C422,112.487727 418.309973,108.796875 413.757812,108.796875 Z M211,16.484375 C219.180371,16.484375 225.835938,23.1399414 225.835938,31.3203125 C225.835938,39.5006836 219.180371,46.15625 211,46.15625 C202.819629,46.15625 196.164062,39.5006836 196.164062,31.3203125 C196.164062,23.1399414 202.819629,16.484375 211,16.484375 Z M193.34441,57.1727578 C198.374617,60.6196406 204.454879,62.640625 211,62.640625 C217.545121,62.640625 223.625383,60.6196406 228.656414,57.1727578 L289.402984,108.796875 L132.597016,108.796875 L193.34441,57.1727578 Z" id="Shape" fill="#000000"></path>
                </g>
                <g id="support" transform="translate(100.000000, 133.000000)" fill="#000000">
                    <path d="M70.8121426,65.6220859 L67.1796059,58.5392556 C61.0509686,61.5244172 54.6179287,58.555092 54.5529895,58.5273783 L50.944805,65.6220859 C51.2126792,65.7527362 55.4986667,67.7956319 61.2051992,67.7956319 C64.1518155,67.7956319 67.4718323,67.2532352 70.8121426,65.6220859 Z" id="Path"></path>
                    <path d="M78.9051908,58.5273783 L75.2970063,65.6220859 C75.5648805,65.7527362 79.8508679,67.7956319 85.5574004,67.7956319 C88.4999581,67.7956319 91.8199748,67.2532352 95.1643438,65.6220859 L91.5318071,58.5392556 C85.4031698,61.5283763 78.97013,58.5590511 78.9051908,58.5273783 Z" id="Path"></path>
                    <path d="M63.1330818,84.3011207 L58.6319832,90.8890634 C63.4861887,94.0444663 68.3079245,95.0975869 72.5857945,95.0975869 C80.8736604,95.0975869 87.0997065,91.1424458 87.4893417,90.8890634 L82.9882432,84.3011207 C82.882717,84.3684254 72.9470189,90.6871493 63.1330818,84.3011207 L63.1330818,84.3011207 Z" id="Path"></path>
                    <path d="M238.351229,186.196483 C244.512335,171.242961 241.90665,151.142609 232.080537,135.270577 C232.648755,133.968033 232.940981,132.435861 232.900394,130.780957 C232.81922,127.6018 231.536671,125.056098 229.101451,123.642699 L221.251925,119.814249 C224.097073,117.308139 227.287212,113.198593 227.287212,107.390593 C227.287212,102.489227 225.976252,98.8191411 224.661233,96.3724172 C227.640319,93.5574969 231.345912,88.3235665 231.345912,79.6768916 C231.345912,70.1671329 226.865107,64.7827566 223.792671,62.2093415 C226.475472,50.8388057 224.713996,40.7470593 218.630004,32.8842863 C210.374608,22.2105521 194.712084,16.3312883 174.524109,16.3312883 C140.272738,16.3312883 127.357954,20.9278037 114.455346,37.7104294 C104.803757,50.2607771 110.145006,63.6385767 115.944889,71.2123354 C113.026683,74.0945603 109.584906,79.2611861 109.584906,87.595092 C109.584906,97.3305194 114.284881,102.742609 117.357317,105.240802 C116.87839,109.199902 117.381669,112.525546 118.696688,115.308793 L77.115304,115.308793 L77.115304,111.349693 C99.588327,111.349693 105.526205,90.6317219 105.526205,79.6768916 L105.526205,38.4705767 C108.13595,35.5843926 109.584906,32.0964254 109.584906,28.208589 C109.584906,5.09536196 67.1471363,0.688883436 65.2070776,0.502805726 C63.8595891,0.415705521 32.1327296,-1.43715337 13.3206541,15.7334642 C4.48080503,23.8021104 0,34.6579632 0,48.00409 C0,89.3608507 26.6737778,100.105849 36.5283019,102.663427 L36.5283019,116.480687 C30.5051908,118.776965 16.6325535,125.246135 9.7652327,138.148843 C5.05714046,146.993472 4.57415514,157.045628 8.32845283,168.028172 C10.0006373,172.925579 12.6793795,177.355812 16.2348008,181.346585 L16.2348008,242 L101.467505,242 L101.467505,203.386896 C109.394147,202.741562 117.450667,201.605301 125.482834,199.98207 C121.813769,207.171796 117.702306,219.381661 117.702306,238.0409 L117.702306,242 L231.345912,242 L231.345912,238.0409 C231.345912,237.241162 231.252562,219.346029 224.153895,203.481914 C230.526055,199.22984 235.368084,193.445595 238.351229,186.196483 Z M213.556629,162.817996 C212.217258,152.658945 206.547254,145.085186 206.181971,144.606135 L199.68805,149.357055 C199.793577,149.495624 210.277199,163.392065 203.361174,176.884679 C201.396763,180.721047 198.580025,183.136098 194.75673,184.27236 C188.124813,186.240033 179.987119,184.018978 174.524109,181.924613 L174.524109,146.526299 C179.901887,145.3742 183.899706,141.906029 185.722063,136.557284 C185.856,136.161374 186.241577,135.951542 186.659623,135.963419 C191.599061,136.474143 195.694289,135.547714 198.705845,133.374168 C199.339002,133.742364 199.959983,134.078888 200.516025,134.371861 L213.028998,141.442814 C214.839178,142.503853 216.860411,143.034372 218.889761,143.034372 C220.635002,143.034372 222.380243,142.638462 223.999665,141.850601 L225.927547,140.650994 C229.970013,147.583378 232.457996,155.264033 233.261618,162.821955 L213.556629,162.821955 L213.556629,162.817996 Z M152.436662,169.667239 C152.00644,169.112965 151.519396,168.602241 150.963354,168.174658 C149.254642,166.876074 147.127883,166.412859 144.830658,166.97901 L141.571522,168.03609 C140.743547,163.301006 140.29709,154.294053 144.924008,149.77672 L139.185006,144.178552 C133.888403,149.345178 132.816906,156.914978 132.950843,162.814037 L129.878407,162.814037 C124.147522,162.814037 119.540897,165.296393 118.027002,169.164434 L117.061031,171.048965 C116.541518,159.151869 117.763187,135.159722 134.314566,123.55164 C135.260243,123.539763 136.092277,123.488294 136.794432,123.417031 C136.948662,125.159035 137.427589,127.003975 138.426029,128.947894 C141.218415,134.395616 147.079178,136.862135 155.046407,136.030724 C156.78353,141.68036 160.846289,145.326691 166.410767,146.514421 L166.410767,173.230429 C166.029249,172.783051 165.680201,172.335673 165.221568,171.884335 C161.43886,168.21029 156.109786,168.689342 152.436662,169.667239 L152.436662,169.667239 Z M45.6360252,190.278315 L58.3438155,171.682421 C83.5280503,184.779125 116.172176,182.736229 117.990474,182.60162 L120.295816,182.443256 L125.389484,172.505914 L125.604595,172.003108 C125.766943,171.678462 127.138784,170.736196 129.878407,170.736196 L129.878407,180.190528 L146.117266,174.897211 L146.348612,186.283583 C111.078507,197.931256 72.1149853,199.269431 45.6360252,190.278315 L45.6360252,190.278315 Z M101.467505,154.899796 L109.450969,154.899796 C108.44847,163.059501 108.744755,170.360082 109.122214,174.81011 C106.893987,174.76656 104.320771,174.663624 101.467505,174.457751 L101.467505,154.899796 Z M180.088587,47.7229939 C181.322432,47.8021759 182.70239,47.9842945 184.110759,48.360409 C188.465744,49.5164663 191.526004,52.034454 193.38083,55.9816769 C193.177895,55.9737587 192.991195,55.9222904 192.78826,55.9222904 C183.412662,55.9222904 175.753895,62.8744703 174.731103,71.7586912 L166.203774,71.7586912 C165.180981,62.8744703 157.522214,55.9222904 148.146616,55.9222904 C147.618985,55.9222904 147.119765,56.0331452 146.60431,56.0727362 C147.127883,53.5507894 148.223732,50.3874683 150.589954,48.479182 C158.618063,51.7018896 169.450734,56.5636646 171.658667,58.7174151 L174.524109,61.5204581 L177.39361,58.7213742 C179.130734,57.0268793 181.131673,53.1469611 180.088587,47.7229939 L180.088587,47.7229939 Z M192.78826,83.6359918 C187.195371,83.6359918 182.641509,79.1938814 182.641509,73.7382413 C182.641509,68.2826012 187.195371,63.8404908 192.78826,63.8404908 C198.381149,63.8404908 202.93501,68.2826012 202.93501,73.7382413 C202.93501,79.1938814 198.381149,83.6359918 192.78826,83.6359918 Z M148.142558,63.8404908 C153.735447,63.8404908 158.289308,68.2826012 158.289308,73.7382413 C158.289308,79.1938814 153.735447,83.6359918 148.142558,83.6359918 C142.549669,83.6359918 137.995807,79.1938814 137.995807,73.7382413 C137.995807,68.2826012 142.549669,63.8404908 148.142558,63.8404908 Z M140.155036,89.6815378 C142.57808,90.8415542 145.264939,91.5541922 148.142558,91.5541922 C156.069199,91.5541922 162.761996,86.5736442 165.286507,79.6768916 L175.648369,79.6768916 C178.168822,86.5736442 184.865677,91.5541922 192.792319,91.5541922 C195.665878,91.5541922 198.352738,90.8455133 200.771723,89.6854969 C201.628109,93.0982413 202.107036,97.9402209 199.529761,102.010176 C195.653702,108.119067 185.604361,111.349693 170.465409,111.349693 C155.354868,111.349693 145.313644,108.130945 141.429468,102.045808 C138.811606,97.9520982 139.290532,93.1022004 140.155036,89.6815378 L140.155036,89.6815378 Z M194.740495,121.968 C193.397065,123.907959 193.218482,125.693513 193.405182,126.952507 C193.417358,127.031689 193.449828,127.098994 193.462004,127.174217 C192.065811,128.001669 190.121694,128.342151 187.507891,128.08481 C183.32743,127.621595 179.341786,130.163337 178.014591,134.059092 C176.853803,137.475796 174.455111,139.063395 170.465409,139.063395 C166.362063,139.063395 163.930901,137.380777 162.818818,133.766119 C161.645853,129.941628 157.867203,127.55429 153.861266,128.033342 C149.607748,128.571779 146.847832,127.6889 145.682985,125.416376 C143.824101,121.785881 145.423229,118.848229 147.647396,115.973922 C148.467254,116.274814 149.392637,116.504442 150.273375,116.761783 C150.963354,122.427256 155.732327,131.145194 170.465409,131.145194 C185.198491,131.145194 189.967463,122.427256 190.657442,116.757824 C191.513828,116.508401 192.410801,116.282732 193.210365,115.993718 C194.164159,117.91784 194.590323,120.336851 194.740495,121.968 L194.740495,121.968 Z M159.303983,118.590888 C162.737644,119.01847 166.422943,119.267894 170.465409,119.267894 C174.503816,119.267894 178.185057,119.01847 181.614658,118.590888 C180.303698,120.772352 177.312436,123.226994 170.465409,123.226994 C163.602147,123.226994 160.614943,120.804025 159.303983,118.590888 Z M224.665291,132.04391 L220.200721,134.839035 C219.230692,135.258699 218.118608,135.187436 217.148579,134.617325 L204.887245,127.673063 L204.379908,127.407804 C203.783279,127.091076 202.585962,126.45762 201.851338,125.923141 L205.914096,121.960082 C206.628428,121.872982 208.134205,122.134282 208.795774,122.565824 L224.713996,130.353374 C224.823581,130.836384 224.799229,131.600491 224.665291,132.04391 L224.665291,132.04391 Z M124.630507,68.9596074 C124.070407,68.4132515 111.001392,55.4036483 120.949266,42.4613497 C132.074164,27.9947975 143.089476,24.2494888 174.524109,24.2494888 C192.10234,24.2494888 205.463581,29.0083272 212.14826,37.6510429 C217.189166,44.1677219 218.23631,52.6124826 215.2694,62.7517382 L214.429249,65.8437955 L217.302809,67.3561718 C217.542273,67.482863 223.228512,70.5788793 223.228512,79.6768916 C223.228512,88.7749039 217.542273,91.8709202 217.355572,91.9698978 L212.541954,94.3928671 L216.255665,98.2688262 C216.373367,98.3915583 219.169811,101.37672 219.169811,107.390593 C219.169811,112.703706 213.3334,115.708663 213.296872,115.724499 L213.438927,116.005595 L213.061468,115.819517 C211.409577,114.817865 209.152939,114.160654 206.957182,114.041881 C204.8426,113.950822 203.044595,114.378405 201.619992,115.221693 C201.299354,114.247755 200.877249,113.273816 200.382088,112.315714 C202.87413,110.581628 204.923774,108.550609 206.43361,106.17119 C211.689627,97.8729162 209.161057,88.4067076 207.545694,84.1467157 C209.729275,81.2130225 211.052411,77.6339959 211.052411,73.7382413 C211.052411,67.5184949 207.756746,62.0470184 202.788897,58.8599427 C200.227857,46.8480327 192.398625,42.3584131 186.245635,40.7193456 C179.808537,39.0090143 173.976184,40.1175624 173.728604,40.1611125 L168.517233,41.1786012 L170.891572,45.8147076 C171.662725,47.3191656 172.040184,48.5781595 172.186298,49.6035665 C165.160688,45.7038528 154.340193,41.408229 151.677686,40.3669857 L149.985208,39.705816 L148.35361,40.5015951 C139.525937,44.8090961 138.223094,55.6253579 138.028277,58.9153701 C133.125367,62.1143231 129.878407,67.562045 129.878407,73.7382413 C129.878407,77.6339959 131.201543,81.2130225 133.385124,84.1467157 C131.769761,88.4067076 129.241191,97.8768753 134.497208,106.17119 C135.873107,108.344736 137.662994,110.249063 139.862809,111.884172 C136.985191,112.885824 134.371388,114.105227 131.988931,115.502789 C130.134105,115.28108 128.254927,114.730765 127.021082,113.51928 C125.259606,111.785194 124.825325,108.653546 125.738532,104.203517 L126.270222,101.301497 L123.628008,99.9118528 C123.388545,99.7891207 117.702306,96.6931043 117.702306,87.595092 C117.702306,78.4970798 123.388545,75.4010634 123.575245,75.3020859 L128.612092,72.8434847 L124.630507,68.9596074 Z M77.115304,103.431493 C71.8187002,103.431493 67.151195,102.29919 62.8489727,99.9672802 L58.9079748,106.891746 C62.1021719,108.621873 65.458717,109.77793 68.9938449,110.498487 L68.9938449,117.739681 C67.0578449,119.707354 62.0859371,124.105914 56.2170566,124.105914 C56.2048805,124.105914 56.1927044,124.105914 56.1805283,124.105914 C52.2192369,124.090078 48.3431782,121.956123 44.6416436,117.803027 L44.6416436,79.6768916 L40.5829434,79.6768916 C39.2273375,79.6768916 32.465543,79.296818 32.465543,71.7586912 C32.465543,64.5254151 38.7037652,63.8682045 40.5829434,63.8404908 L44.6416436,63.8404908 L44.6416436,45.553407 C51.5617275,47.8417669 59.1109099,47.9803354 60.5111614,47.9882536 C63.2183145,48.2257996 83.8081006,49.7856851 97.4047463,43.9816442 L97.4047463,79.6650143 C97.4047463,80.638953 97.0678742,103.431493 77.115304,103.431493 Z M8.11740042,48.00409 C8.11740042,36.9502822 11.7255849,28.0423067 18.8445451,21.533546 C35.0590524,6.71463395 64.3872201,8.38141513 64.5333333,8.39329243 C74.8059036,9.40682209 101.467505,14.9376851 101.467505,28.208589 C101.467505,30.5246626 100.619237,32.3616851 98.7928218,33.9888753 C90.9067673,41.0162781 69.0141384,40.7866503 60.8845618,40.0858896 C54.2607631,40.0740123 40.5870021,38.1221759 40.5870021,32.1676892 C40.5870021,30.6711493 41.0659287,30.3544213 41.2729224,30.2158528 C43.6188512,28.6559673 50.9326289,30.18418 55.3160252,31.8826339 L58.3275807,24.5305849 C55.9207715,23.5922781 43.5660881,19.1382904 36.7190608,23.6556237 C34.7830608,24.9383722 32.4696017,27.4563599 32.4696017,32.1676892 C32.4696017,36.0396892 34.0809057,38.9615051 36.5283019,41.170683 L36.5283019,56.421137 C30.6634801,57.8345358 24.3522013,62.3914601 24.3522013,71.7586912 C24.3522013,81.1259223 30.6634801,85.6828466 36.5283019,87.0962454 L36.5283019,94.5433129 C27.4855178,91.8313292 8.11740042,82.0483926 8.11740042,48.00409 Z M16.9491321,141.838724 C22.460847,131.438168 34.2473124,125.903346 39.3369224,123.919836 C44.446826,129.300254 50.1168302,132.028074 56.2211153,132.028074 C65.0974927,132.028074 72.03787,126.085464 74.8627254,123.226994 L122.491572,123.226994 C116.249291,130.119787 112.72634,138.651648 110.830927,146.981595 L101.467505,146.981595 L101.467505,139.063395 L93.3501048,139.063395 L93.3501048,173.638217 C76.2629769,171.421121 54.5692243,165.292434 44.0287799,148.842372 L37.1452243,153.042978 C40.9441677,158.969751 45.8836059,163.708793 51.4359078,167.525366 L37.9650818,187.233767 C37.676914,187.099157 37.3562767,186.984344 37.0721677,186.845775 C26.1299119,181.540581 19.0474801,174.37065 16.0278071,165.52602 C13.0000168,156.669513 13.3125367,148.703804 16.9491321,141.838724 L16.9491321,141.838724 Z M93.3501048,234.0818 L24.3522013,234.0818 L24.3522013,188.587779 C27.0918239,190.527738 30.1196143,192.317252 33.4599245,193.936524 C47.3487966,200.666994 65.8321174,204.032229 85.9795052,204.032229 C88.4147254,204.032229 90.8742977,203.976802 93.3501048,203.877824 L93.3501048,234.0818 Z M223.049929,234.0818 L125.888704,234.0818 C126.781618,208.509971 136.108512,198.04211 136.77008,197.333431 C140.536553,196.351575 144.282734,195.278658 147.984268,194.075092 C151.795388,198.030233 167.007396,211.962307 192.187572,211.962307 C197.049895,211.962307 202.28156,211.439706 207.874449,210.228221 C211.133585,209.519542 214.153258,208.525808 216.986231,207.33016 C221.284394,217.303133 222.64,228.337145 223.049929,234.0818 L223.049929,234.0818 Z M206.112973,202.500057 C175.400788,209.167182 157.31522,192.230151 153.893736,188.647166 C154.088553,187.982037 154.230608,187.293153 154.230608,186.572597 L154.230608,177.415198 C156.22343,176.853006 158.549065,176.595665 159.478507,177.49438 C162.18566,180.1351 162.34395,182.60162 162.348008,182.613497 L162.348008,184.913734 L164.393593,186.053955 C165.002398,186.390479 176.934977,192.934871 189.139488,192.934871 C191.818231,192.934871 194.509149,192.618143 197.094541,191.854037 C203.0933,190.08036 207.647161,186.236074 210.622189,180.424115 C212.302491,177.14202 213.223816,173.879722 213.621568,170.736196 L233.468612,170.736196 C233.212914,175.166429 232.393057,179.422462 230.818281,183.242994 C226.706818,193.231804 218.163254,199.89101 206.112973,202.500057 L206.112973,202.500057 Z" id="Shape"></path>
                    <path d="M184.894088,102.766364 L180.39299,96.1784213 C170.696755,102.489227 160.939639,96.4278446 160.525652,96.166544 L156.040788,102.766364 C156.430423,103.019746 162.65647,106.974888 170.944335,106.974888 C175.214088,106.974888 180.039883,105.921767 184.894088,102.766364 Z" id="Path"></path>
                </g>
            </g>
        </g>
    </g>
</svg>
