<?xml version="1.0" encoding="UTF-8"?>
<svg width="440px" height="440px" viewBox="0 0 440 440" version="1.1" xmlns="http://www.w3.org/2000/svg" xmlns:xlink="http://www.w3.org/1999/xlink">
    <title>icon_templ copy 4</title>
    <defs>
        <filter x="-2.8%" y="-2.8%" width="105.7%" height="105.7%" filterUnits="objectBoundingBox" id="filter-1">
            <feOffset dx="0" dy="2" in="SourceAlpha" result="shadowOffsetOuter1"></feOffset>
            <feGaussianBlur stdDeviation="2" in="shadowOffsetOuter1" result="shadowBlurOuter1"></feGaussianBlur>
            <feColorMatrix values="0 0 0 0 0   0 0 0 0 0   0 0 0 0 0  0 0 0 0.5 0" type="matrix" in="shadowBlurOuter1" result="shadowMatrixOuter1"></feColorMatrix>
            <feMerge>
                <feMergeNode in="shadowMatrixOuter1"></feMergeNode>
                <feMergeNode in="SourceGraphic"></feMergeNode>
            </feMerge>
        </filter>
        <rect id="path-2" x="8.2421875" y="117.039062" width="405.515625" height="296.71875"></rect>
        <filter x="-1.7%" y="-1.7%" width="103.5%" height="104.7%" filterUnits="objectBoundingBox" id="filter-3">
            <feOffset dx="0" dy="2" in="SourceAlpha" result="shadowOffsetOuter1"></feOffset>
            <feGaussianBlur stdDeviation="2" in="shadowOffsetOuter1" result="shadowBlurOuter1"></feGaussianBlur>
            <feColorMatrix values="0 0 0 0 0   0 0 0 0 0   0 0 0 0 0  0 0 0 0.5 0" type="matrix" in="shadowBlurOuter1"></feColorMatrix>
        </filter>
    </defs>
    <g id="Welcome" stroke="none" stroke-width="1" fill="none" fill-rule="evenodd">
        <g id="Artboard" transform="translate(-3059.000000, 9.000000)" fill-rule="nonzero">
            <g id="icon_templ-copy-4" filter="url(#filter-1)" transform="translate(3068.000000, 0.000000)">
                <g id="Box">
                    <circle id="Oval" fill="#878791" cx="211" cy="31.3203125" r="23.078125"></circle>
                    <g id="Rectangle">
                        <use fill="black" fill-opacity="1" filter="url(#filter-3)" xlink:href="#path-2"></use>
                        <use fill="#F0F0FA" xlink:href="#path-2"></use>
                    </g>
                    <path d="M282.904844,422 C280.736324,422 278.610664,421.118086 277.069375,419.585039 C275.536328,418.051992 274.662656,415.925508 274.662656,413.757812 C274.662656,411.590117 275.536328,409.463633 277.069375,407.930586 C278.610664,406.397539 280.728082,405.515625 282.904844,405.515625 C285.072539,405.515625 287.199023,406.397539 288.731246,407.930586 C290.264293,409.463633 291.147031,411.590117 291.147031,413.757812 C291.147031,415.925508 290.265117,418.051992 288.731246,419.585039 C287.190781,421.118086 285.072539,422 282.904844,422 Z" id="Path" fill="#000000"></path>
                    <path d="M413.757812,108.796875 L314.85898,108.796875 L239.346531,44.6240273 C241.250477,40.583707 242.320312,36.0752305 242.320312,31.3203125 C242.320312,14.050457 228.269855,0 211,0 C193.730145,0 179.679688,14.050457 179.679688,31.3203125 C179.679688,36.0752305 180.749523,40.583707 182.654293,44.6248516 L107.141844,108.796875 L8.2421875,108.796875 C3.69085156,108.796875 0,112.486902 0,117.039062 L0,413.757812 C0,418.309973 3.69085156,422 8.2421875,422 L240.671875,422 C245.223211,422 248.914062,418.309973 248.914062,413.757812 C248.914062,409.205652 245.223211,405.515625 240.671875,405.515625 L16.484375,405.515625 L16.484375,125.28125 L405.515625,125.28125 L405.515625,405.515625 L324.742188,405.515625 C320.190852,405.515625 316.5,409.205652 316.5,413.757812 C316.5,418.309973 320.190852,422 324.742188,422 L413.757812,422 C418.309148,422 422,418.309973 422,413.757812 L422,117.039062 C422,112.487727 418.309973,108.796875 413.757812,108.796875 Z M211,16.484375 C219.180371,16.484375 225.835938,23.1399414 225.835938,31.3203125 C225.835938,39.5006836 219.180371,46.15625 211,46.15625 C202.819629,46.15625 196.164062,39.5006836 196.164062,31.3203125 C196.164062,23.1399414 202.819629,16.484375 211,16.484375 Z M193.34441,57.1727578 C198.374617,60.6196406 204.454879,62.640625 211,62.640625 C217.545121,62.640625 223.625383,60.6196406 228.656414,57.1727578 L289.402984,108.796875 L132.597016,108.796875 L193.34441,57.1727578 Z" id="Shape" fill="#000000"></path>
                </g>
                <g id="agreement" transform="translate(90.000000, 133.000000)" fill="#000000">
                    <path d="M236.960066,120.898379 L207.20352,120.898379 C204.259816,120.898379 201.349672,120.132676 198.78693,118.683984 L173.156672,104.198488 C169.177852,101.94959 164.658785,100.761332 160.088672,100.761332 L126.734738,100.761332 L80.6129414,100.761332 C76.0711875,100.761332 71.5771719,101.935883 67.6167852,104.158785 L41.7922656,118.649008 C39.2522109,120.074066 36.3708984,120.830316 33.4593359,120.836934 L5.01819141,120.898852 C2.40818359,120.904523 0.296355469,123.025332 0.302015945,125.63534 C0.307699219,128.242512 2.42236328,130.351977 5.02858984,130.351977 L5.03898828,130.351977 L33.4801328,130.290059 C38.0006172,130.280133 42.4747812,129.105109 46.4181523,126.892605 L72.2426719,112.402383 C74.7935977,110.97118 77.6881445,110.214457 80.6129414,110.214457 L116.643527,110.214457 L89.2133945,143.133074 C88.3848281,144.127543 88.0000859,145.41884 88.149918,146.704938 C88.29975,147.991035 88.9699766,149.158969 90.0046211,149.936961 C102.802734,159.557406 120.961242,157.547672 131.344082,145.357867 L135.986984,139.907668 C141.867773,146.579211 154.443738,157.708375 173.365113,158.491566 L198.949051,186.273828 C201.277828,188.803484 201.114762,192.755836 198.586051,195.084613 C196.055922,197.413863 192.104516,197.250324 189.775738,194.721141 L160.866664,163.32684 C159.09893,161.407383 156.108906,161.283547 154.187559,163.051754 C152.267156,164.819961 152.144266,167.809984 153.912473,169.730859 L177.636508,195.493934 C183.082453,201.414898 173.909613,209.855594 168.461305,203.939355 L141.085527,174.209277 C139.317793,172.28982 136.327297,172.165984 134.406895,173.934191 C132.486492,175.702398 132.363129,178.692422 134.131336,180.613297 L157.868605,206.392441 C163.306988,212.34082 154.095863,220.703055 148.680641,214.821793 L120.578863,184.307578 C118.809711,182.387648 115.819688,182.264285 113.90023,184.032492 C111.979828,185.800699 111.856938,188.790723 113.624672,190.711125 L133.943219,212.777082 C139.410434,218.711754 130.211125,227.132598 124.743438,221.195563 L118.465617,214.608152 C115.334742,211.878563 111.404133,210.647766 107.551039,210.845809 C107.212617,207.01682 105.457645,203.307887 102.338113,200.588223 L101.918395,200.222859 C99.1339766,197.79577 95.7171445,196.551738 92.2847148,196.444918 C92.2847148,196.090898 92.2766797,195.735934 92.2521016,195.379078 C91.671207,186.897262 83.8875039,180.11559 75.4047422,180.693176 C72.8197852,180.870422 70.376625,181.675355 68.2458906,183.020535 C67.3629687,180.985277 66.0272422,179.110723 64.2467461,177.55852 L63.8270273,177.193156 C57.4220625,171.610141 47.6688008,172.278004 42.0853125,178.683441 L38.7327617,182.529445 C36.8681328,184.668688 35.7044531,187.181801 35.2152539,189.787555 L9.755625,189.787555 L9.755625,168.801145 C9.755625,166.191137 7.63954297,164.074582 5.0290625,164.074582 C2.41858203,164.074582 0.302015945,166.191137 0.302015945,168.801145 L0.302015945,194.514117 C0.302015945,197.124125 2.41858203,199.24068 5.0290625,199.24068 L36.4238359,199.24068 C39.5892148,205.959488 47.3677187,209.782805 54.5979414,207.939445 C56.6379258,215.803027 64.8205508,221.060383 72.8126953,219.549773 C74.7619297,228.735375 84.8914258,234.426156 93.7248984,231.116617 C95.7190352,237.107063 101.501512,241.573664 107.800602,241.960297 C114.681059,242.382852 121.176773,238.048121 123.367535,231.49427 C125.279902,232.281242 127.319887,232.681109 129.364125,232.680637 C133.164281,232.680637 136.975781,231.311824 139.985656,228.540641 C141.66075,226.997418 142.951574,225.148387 143.811809,223.111238 C146.589609,225.212195 149.926562,226.278508 153.274387,226.278035 C157.074543,226.278035 160.886043,224.909223 163.895918,222.137566 C166.107477,220.100891 167.650699,217.532004 168.412148,214.697957 C169.919922,215.161633 171.486305,215.39607 173.055051,215.39607 C176.85568,215.39607 180.666707,214.027258 183.676109,211.255602 C185.669301,209.420277 187.077816,207.184613 187.893148,204.78352 C189.941641,205.708035 192.153199,206.177855 194.369484,206.177855 C198.169641,206.177383 201.981141,204.80857 204.990543,202.037387 C206.037004,201.073641 206.918508,199.998348 207.641672,198.847902 L236.960539,198.847902 C239.570547,198.847902 241.687102,196.731348 241.687102,194.12134 L241.687102,125.624941 C241.687102,123.014934 239.570547,120.898379 236.960066,120.898379 L236.960066,120.898379 Z M46.8563047,197.510758 C44.2349531,195.287855 43.4744492,191.478719 45.8608906,188.740621 L49.2134414,184.894617 C51.486918,182.286027 55.3078711,182.304934 57.8280742,184.50184 C60.3459141,186.696855 60.8866328,190.47527 58.6183555,193.083387 L55.2615508,196.935063 C53.1034023,199.411309 49.3330234,199.668906 46.8563047,197.510758 Z M70.3293594,210.3585 C65.0838203,210.719137 61.4561836,204.220113 65.0096133,200.138727 L71.9708945,192.153199 C74.2434258,189.546027 78.0610703,189.559734 80.5841094,191.759477 C83.1066758,193.959219 83.6492852,197.733379 81.371082,200.346695 L74.4126367,208.329859 C73.3661758,209.529461 71.9165391,210.249789 70.3293594,210.3585 L70.3293594,210.3585 Z M84.3819023,221.189891 C81.7652773,218.97077 81.0019375,215.172031 83.3760898,212.432988 L87.3137891,207.91534 C89.6137344,205.288316 93.4379961,205.356379 95.9638711,207.571246 C98.4618594,209.761062 98.9524766,213.540895 96.7049961,216.119707 L92.7866758,220.614668 C90.6285273,223.089969 86.8581484,223.348512 84.3819023,221.189891 L84.3819023,221.189891 Z M113.251746,230.504055 C107.977375,236.555 98.3829258,227.756977 104.131371,222.010895 C109.463879,216.679805 118.229289,224.794367 113.251746,230.504055 Z M232.233504,189.396195 L210.001645,189.396195 C209.763426,185.966129 208.40832,182.590891 205.903715,179.870754 L178.959473,150.610969 C178.077023,149.651477 176.785727,149.08618 175.482613,149.08618 C166.054539,149.08618 157.281566,145.909457 149.407586,139.643926 C143.367984,134.83843 140.14825,129.925641 140.123672,129.887828 C139.316375,128.626309 137.958906,127.82232 136.46484,127.720699 C134.965102,127.615297 133.51641,128.230695 132.545102,129.371215 L124.148363,139.227988 C118.114906,146.31027 108.268531,148.402246 100.04573,144.900336 L128.948187,110.213984 L160.088672,110.213984 C163.032375,110.213984 165.942992,110.979688 168.505734,112.428379 L194.135992,126.913875 C198.114812,129.162773 202.633879,130.351031 207.20352,130.351031 L232.233504,130.351031 L232.233504,189.396195 Z" id="Shape"></path>
                    <path d="M0.6655,149.538984 C2.28056641,153.413348 7.91179297,153.310309 9.43374609,149.431219 C11.0431406,145.328562 6.35628125,141.430094 2.59960938,143.677574 C0.618707031,144.862996 -0.222621094,147.408723 0.6655,149.538984 Z" id="Path"></path>
                    <path d="M71.5128906,91.3559453 C72.0592812,91.5634414 72.6274141,91.6636445 73.189875,91.6636445 C74.5156758,91.6636445 75.8112266,91.1049648 76.7258164,90.0745742 L89.5329102,75.6429609 L155.449078,75.6429609 C165.59748,75.6429609 173.853367,67.3866016 173.853367,57.2386719 L173.853367,18.4042891 C173.853367,8.25635937 165.597953,-6.7168493e-15 155.449551,-6.7168493e-15 L155.206605,-6.7168493e-15 C152.596598,-6.7168493e-15 150.480043,2.11655469 150.480043,4.7265625 C150.480043,4.92271484 150.492805,5.13021094 150.517383,5.32447266 C150.830281,7.82766016 153.042312,9.62280859 155.533684,9.45359766 C160.430402,9.49897266 164.400242,13.4966992 164.400242,18.4047617 L164.400242,57.2386719 C164.400242,62.1741484 160.385027,66.1898359 155.449078,66.1898359 L87.4083203,66.1898359 C86.0569961,66.1898359 84.7699531,66.7683672 83.8733242,67.7789062 L77.9178555,74.4896797 L77.9178555,18.4042891 C77.9178555,13.4688125 81.933543,9.453125 86.8690195,9.453125 L113.386453,9.453125 C113.594895,9.46777734 113.805699,9.46919531 114.01934,9.45548828 C116.568848,9.29620312 118.5195,7.14372656 118.449547,4.61028906 C118.448129,4.55026172 118.445293,4.48976172 118.441512,4.431625 C118.285535,1.94025391 116.220027,-6.7168493e-15 113.724402,-6.7168493e-15 L86.8694922,-6.7168493e-15 C76.7210898,-6.7168493e-15 68.4652026,8.25635937 68.4652026,18.4042891 L68.4652026,86.9375547 C68.4652026,88.9004961 69.6780391,90.65925 71.5128906,91.3559453 Z" id="Path"></path>
                    <path d="M114.197059,43.2764062 L107.694727,36.4810273 C105.890125,34.5951289 102.897738,34.528957 101.01184,36.3340312 C99.1259414,38.1381602 99.0597695,41.1300742 100.864371,43.016918 L110.597309,53.1884805 C111.525133,54.1578984 112.767746,54.6470977 114.013195,54.6470977 C115.17073,54.6470977 116.330156,54.2240703 117.241438,53.3728164 L144.670625,27.7175078 C146.576848,25.9341758 146.677051,22.9427344 144.894191,21.0365117 C143.110859,19.1298164 140.119891,19.0300859 138.213195,20.8129453 L114.197059,43.2764062 Z" id="Path"></path>
                    <path d="M131.842262,8.65433594 C135.410344,11.0351055 140.160066,7.58707812 139.016711,3.46787891 C138.478828,1.52998828 136.711566,0.103511719 134.698523,0.00708984375 C132.677918,-0.0898046875 130.790129,1.14760937 130.060348,3.02925391 C129.276211,5.04985937 130.0145,7.46182422 131.842262,8.65433594 L131.842262,8.65433594 Z" id="Path"></path>
                </g>
            </g>
        </g>
    </g>
</svg>
